<?xml version="1.0" encoding="UTF-8"?>
<svg width="10px" height="18px" viewBox="0 0 10 18" version="1.1" xmlns="http://www.w3.org/2000/svg" xmlns:xlink="http://www.w3.org/1999/xlink">
    <!-- Generator: Sketch 51.2 (57519) - http://www.bohemiancoding.com/sketch -->
    <title>Group 3</title>
    <desc>Created with Sketch.</desc>
    <defs>
        <polygon id="path-1" points="0 0 11 0 11 19.4257883 0 19.4257883"></polygon>
    </defs>
    <g id="Symbols" stroke="none" stroke-width="1" fill="none" fill-rule="evenodd">
        <g id="Setting-Option" transform="translate(-344.000000, -18.000000)">
            <g id="Group-3" transform="translate(349.500000, 26.000000) scale(-1, 1) translate(-349.500000, -26.000000) translate(344.000000, 16.000000)">
                <mask id="mask-2" fill="white">
                    <use xlink:href="#path-1"></use>
                </mask>
                <g id="Clip-2"></g>
                <path d="M10.6690377,2.652363 C10.2516327,2.22427918 9.57431905,2.2240053 9.15664674,2.65154134 C9.15637934,2.65181522 9.15611194,2.65208911 9.15557715,2.652363 L1.88508403,10.0938455 C1.46714432,10.5213815 1.46687692,11.2151348 1.88428184,11.6432186 C1.88454924,11.6434925 1.88481663,11.6437664 1.88508403,11.6440402 L9.15557715,19.0855227 C9.56282103,19.5237403 10.2401347,19.5409952 10.6677007,19.1238668 C11.0958014,18.7067384 11.11238,18.0129852 10.7051361,17.5750415 C10.6925685,17.5613472 10.6797335,17.5482006 10.6663637,17.535328 L4.15260083,10.8689429 L10.6663637,4.20255773 C11.0851056,3.77584335 11.08671,3.08209012 10.6701072,2.65318465 C10.6695724,2.65291077 10.6693051,2.65263688 10.6690377,2.652363" id="Fill-1" fill="#10446B" mask="url(#mask-2)"></path>
            </g>
        </g>
    </g>
</svg>