<?xml version="1.0" encoding="UTF-8"?>
<svg width="41px" height="38px" viewBox="0 0 41 38" version="1.1" xmlns="http://www.w3.org/2000/svg" xmlns:xlink="http://www.w3.org/1999/xlink">
    <!-- Generator: Sketch 51.2 (57519) - http://www.bohemiancoding.com/sketch -->
    <title>Fill 1</title>
    <desc>Created with Sketch.</desc>
    <defs></defs>
    <g id="Symbols" stroke="none" stroke-width="1" fill="none" fill-rule="evenodd">
        <g id="mobile-footer" transform="translate(-213.000000, -108.000000)" fill="#10446B">
            <g id="Group-2" transform="translate(142.000000, 107.000000)">
                <path d="M107.659182,33.0606103 C107.659182,34.1168005 106.726935,34.9794901 105.588811,34.9794901 L77.4097387,34.9794901 C76.271615,34.9794901 75.3408183,34.1168005 75.3408183,33.0606103 L75.3408183,17.2594151 L79.3916687,17.2594151 C79.1582446,18.1382298 79.0393578,19.057357 79.0393578,20.0020156 C79.0393578,26.3835001 84.6139892,31.5488879 91.4992751,31.5488879 C98.3831111,31.5488879 103.960642,26.3835001 103.960642,20.0020156 C103.960642,19.057357 103.838856,18.1382298 103.605432,17.2594151 L107.659182,17.2594151 L107.659182,33.0606103 Z M83.9412638,17.2594151 C85.1257824,14.4617207 88.0631564,12.4769971 91.4992751,12.4769971 C94.9339439,12.4769971 97.8727678,14.4617207 99.0558365,17.2594151 C99.4182963,18.1086672 99.6183741,19.0331695 99.6183741,20.0020156 C99.6183741,24.1515259 95.9778281,27.5283779 91.4992751,27.5283779 C87.0236218,27.5283779 83.3801761,24.1515259 83.3801761,20.0020156 C83.3801761,19.0331695 83.5788041,18.1086672 83.9412638,17.2594151 Z M100.275151,6.24063793 C100.275151,5.65341773 100.788394,5.18310407 101.420524,5.18310407 L106.370275,5.18310407 C107.002405,5.18310407 107.515648,5.65341773 107.515648,6.24063793 L107.515648,10.832243 C107.515648,11.4154319 107.002405,11.8897769 106.370275,11.8897769 L101.420524,11.8897769 C100.788394,11.8897769 100.275151,11.4154319 100.275151,10.832243 L100.275151,6.24063793 Z M105.588811,1 L77.4097387,1 C73.8721313,1 71,3.66466282 71,6.94342091 L71,33.0606103 C71,36.3393684 73.8721313,39 77.4097387,39 L105.588811,39 C109.129319,39 112,36.3393684 112,33.0606103 L112,6.94342091 C112,3.66466282 109.129319,1 105.588811,1 Z" id="Fill-1"></path>
            </g>
        </g>
    </g>
</svg>