<?xml version="1.0" encoding="UTF-8"?>
<svg width="34px" height="54px" viewBox="0 0 34 54" version="1.1" xmlns="http://www.w3.org/2000/svg" xmlns:xlink="http://www.w3.org/1999/xlink">
    <!-- Generator: Sketch 51.2 (57519) - http://www.bohemiancoding.com/sketch -->
    <title>Group 6</title>
    <desc>Created with Sketch.</desc>
    <defs>
        <polygon id="path-1" points="5.50151025e-05 0.573586603 33.2496169 0.573586603 33.2496169 53.8567887 5.50151025e-05 53.8567887"></polygon>
    </defs>
    <g id="Page-1" stroke="none" stroke-width="1" fill="none" fill-rule="evenodd">
        <g id="Account" transform="translate(-323.000000, -1396.000000)">
            <g id="Group-2" transform="translate(115.000000, 1396.000000)">
                <g id="Group-6" transform="translate(208.000000, 0.000000)">
                    <g id="Group-3" transform="translate(0.000000, 0.018524)">
                        <mask id="mask-2" fill="white">
                            <use xlink:href="#path-1"></use>
                        </mask>
                        <g id="Clip-2"></g>
                        <path d="M3.59743886,45.2604758 C3.72803992,49.1127158 5.32007283,50.4342786 8.93376295,50.4697885 C13.955108,50.5195025 18.977044,50.453809 23.9977981,50.4952373 C26.4000304,50.5159515 28.2526744,49.6826509 28.1764412,47.0720762 C28.1067086,44.6846225 26.3297067,43.8116691 24.0545298,43.8353424 C21.2983154,43.8643422 18.5367825,43.9211581 15.7858867,43.7933222 C11.9239955,43.613405 10.0447584,41.6183365 10.0075283,37.8323818 C9.97679861,34.776157 10.1192188,31.7134221 9.96438855,28.6648911 C9.83556035,26.1306629 10.9418282,25.3997493 13.297375,25.4678101 C17.4287418,25.5873603 21.566609,25.4654428 25.7009305,25.5127894 C27.9648793,25.5382382 29.7395174,24.8339571 29.7867938,22.3299123 C29.836434,19.6719911 28.0310663,18.8759759 25.6306069,18.8990574 C21.2989064,18.9410775 16.966024,18.8676902 12.6349144,18.9256898 C10.7621779,18.9511386 9.93365889,18.2101639 9.98566294,16.3009112 C10.0577595,13.6412144 9.99216344,10.9773748 10.0010278,8.31471879 C10.0087102,5.99532588 9.3551139,4.06772631 6.65326742,4.04109384 C3.89409829,4.01386952 3.32678145,5.99532588 3.32855431,8.29518831 C3.33328195,14.1129052 3.32855431,18.9256898 3.33032718,25.747747 C3.36223875,34.4244111 3.45127598,40.928654 3.59743886,45.2604758 Z M13.2282333,37.2778345 C13.1100423,39.6469413 14.3280006,40.4749155 16.41289,40.50865 C18.9693616,40.5506701 21.527606,40.5080581 24.0840775,40.5577721 C28.7006184,40.6477307 31.4911081,43.1428979 31.518883,47.1519736 C31.5478398,51.2906607 28.6763892,53.8266644 23.9026543,53.8414602 C18.7873474,53.8568479 13.6726315,53.8686846 8.55850649,53.8373174 C4.24985323,53.8106849 1.71229225,51.9103097 0.673393278,47.7574186 C0.247905643,46.0582665 0.0475718814,44.2602783 0.0398894658,42.5060858 C-0.0156603088,31.0795691 -0.00206834267,19.6524606 0.0150693537,8.2265357 C0.0215698593,3.53744409 2.68914095,0.526790414 6.7153177,0.574137041 C10.6351225,0.61970817 13.1862755,3.53685225 13.2489167,8.09396514 C13.2820102,10.4358477 13.2548263,12.7789139 13.2548263,15.5031205 C17.662169,15.5031205 21.7610332,15.4605085 25.8593065,15.5161408 C29.4339936,15.5646711 31.781858,17.1134977 32.8231208,19.9531117 C34.4340643,24.3415522 31.307912,28.7146051 26.365164,28.9063589 C24.2046324,28.9903992 22.0381912,28.9252976 19.8741138,28.9264812 C17.8164083,28.9276649 15.7587028,28.927073 13.258372,28.927073 C13.258372,31.9939508 13.3600163,34.641811 13.2282333,37.2778345 Z" id="Fill-1" fill="#10446B" mask="url(#mask-2)"></path>
                    </g>
                </g>
            </g>
        </g>
    </g>
</svg>