<?xml version="1.0" encoding="UTF-8"?>
<svg width="54px" height="54px" viewBox="0 0 54 54" version="1.1" xmlns="http://www.w3.org/2000/svg" xmlns:xlink="http://www.w3.org/1999/xlink">
    <!-- Generator: Sketch 51.2 (57519) - http://www.bohemiancoding.com/sketch -->
    <title>Group 14</title>
    <desc>Created with Sketch.</desc>
    <defs>
        <polygon id="path-1" points="0.000120116211 0.540343386 53.0974239 0.540343386 53.0974239 53.8567887 0.000120116211 53.8567887"></polygon>
    </defs>
    <g id="Page-1" stroke="none" stroke-width="1" fill="none" fill-rule="evenodd">
        <g id="Account" transform="translate(-212.000000, -1396.000000)">
            <g id="Group-2" transform="translate(115.000000, 1396.000000)">
                <g id="Group-14" transform="translate(97.000000, 0.000000)">
                    <g id="Group-3" transform="translate(0.000000, 0.051726)">
                        <mask id="mask-2" fill="white">
                            <use xlink:href="#path-1"></use>
                        </mask>
                        <g id="Clip-2"></g>
                        <path d="M3.4069992,27.2355556 C3.4069992,31.8666476 3.38401915,36.4977396 3.41289152,41.1288316 C3.45119161,47.2833013 6.53346498,50.446056 12.6043238,50.4726885 C21.9236194,50.513525 31.2440936,50.5141168 40.5633892,50.4732803 C46.5034385,50.4466479 49.6870598,47.2963216 49.7165214,41.3874625 C49.7642492,31.9281982 49.7654277,22.4689339 49.7153429,13.0096696 C49.6847029,7.22331985 46.5164016,4.00256552 40.8208837,3.97179021 C31.3053737,3.92089258 21.7886853,3.91852525 12.2731753,3.97356571 C6.59710205,4.00611651 3.46945781,7.25054416 3.41701615,13.0463632 C3.3740022,17.7756994 3.40817767,22.5056275 3.4069992,27.2355556 M26.5508595,53.8437684 C21.6413772,53.8437684 16.7313058,53.8780947 11.8224127,53.8354827 C5.0656877,53.7762994 0.0972822276,48.8646787 0.0495544236,42.0698458 C-0.0193857377,32.2081351 -0.0123149519,22.3452408 0.0466082629,12.4829383 C0.0884437454,5.53541258 5.03799379,0.615506157 11.9997716,0.57881252 C21.7203344,0.527914896 31.4414863,0.52673123 41.1614598,0.579404353 C48.1238269,0.617873488 53.0374338,5.55967773 53.0651277,12.5131218 C53.104017,22.3748325 53.1134447,32.2377268 53.0615923,42.0994375 C53.0256491,48.8652705 48.0578329,53.7792586 41.2793063,53.8354827 C36.369824,53.8763192 31.4603418,53.8437684 26.5508595,53.8437684" id="Fill-1" fill="#10446B" mask="url(#mask-2)"></path>
                    </g>
                    <path d="M43.1111112,27.2974021 C43.123485,18.1186666 35.8335049,10.7012256 26.7410636,10.6408586 C17.4618358,10.5798998 10.0257261,17.957688 10.010406,27.2405862 C9.99567523,36.4104442 17.2915477,43.8255179 26.3904705,43.8888441 C35.6897323,43.9533538 43.0987373,36.6016063 43.1111112,27.2974021" id="Fill-4"></path>
                    <path d="M13.3476991,27.4089034 C13.4307808,34.7943855 19.4774811,40.7209996 26.7786566,40.5730414 C34.0144274,40.4262668 39.8036333,34.5209587 39.8107041,27.2798839 C39.8177748,19.9109732 33.8517993,13.9541756 26.502896,13.9932366 C19.126888,14.0322975 13.2646173,20.0104011 13.3476991,27.4089034 M43.1109933,27.2976389 C43.0986194,36.6012512 35.6896144,43.9535906 26.3903527,43.8890808 C17.2914298,43.8257547 9.99614662,36.4100891 10.0102882,27.2402311 C10.0256082,17.9579248 17.4617179,10.5795447 26.7409458,10.6410953 C35.8333871,10.7008705 43.1233672,18.1183115 43.1109933,27.2976389" id="Fill-6" fill="#10446B"></path>
                    <path d="M36.5309201,27.3528569 C36.5786479,21.9275252 32.1299452,17.343188 26.723151,17.2473111 C21.2315074,17.1496587 16.5488795,21.8091586 16.5877688,27.3327346 C16.6260689,32.7574744 21.151961,37.273159 26.555809,37.2784855 C31.9673171,37.283812 36.4831923,32.790617 36.5309201,27.3528569" id="Fill-8"></path>
                    <path d="M26.4771466,20.6762722 C22.8127118,20.7188842 19.9950037,23.5946 20.0014853,27.2834941 C20.0079668,31.0836527 22.9906599,33.9658787 26.8000458,33.8534305 C30.4544636,33.7457169 33.1949823,30.8196953 33.120739,27.106536 C33.047085,23.4259276 30.1610259,20.6330684 26.4771466,20.6762722 M36.5306255,27.3527385 C36.4828977,32.7904987 31.9676117,37.2842854 26.5561037,37.2783671 C21.1516664,37.2730406 16.6257743,32.757356 16.5874742,27.333208 C16.5485849,21.8096321 21.2312127,17.1501321 26.7228564,17.2471927 C32.1296506,17.3430696 36.5789425,21.9274068 36.5306255,27.3527385" id="Fill-10" fill="#10446B"></path>
                </g>
            </g>
        </g>
    </g>
</svg>