<?xml version="1.0" encoding="UTF-8"?>
<svg width="55px" height="42px" viewBox="0 0 55 42" version="1.1" xmlns="http://www.w3.org/2000/svg" xmlns:xlink="http://www.w3.org/1999/xlink">
    <!-- Generator: Sketch 51.2 (57519) - http://www.bohemiancoding.com/sketch -->
    <title>Group 10</title>
    <desc>Created with Sketch.</desc>
    <defs>
        <polygon id="path-1" points="0 0.112991718 55.0142487 0.112991718 55.0142487 41.5320418 0 41.5320418"></polygon>
    </defs>
    <g id="Page-1" stroke="none" stroke-width="1" fill="none" fill-rule="evenodd">
        <g id="Account" transform="translate(-405.000000, -1402.000000)">
            <g id="Group-2" transform="translate(115.000000, 1396.000000)">
                <g id="Group-10" transform="translate(290.000000, 6.000000)">
                    <g id="Group-3">
                        <mask id="mask-2" fill="white">
                            <use xlink:href="#path-1"></use>
                        </mask>
                        <g id="Clip-2"></g>
                        <path d="M27.417785,37.987266 C32.5002979,37.987266 37.5834215,38.0324627 42.6659345,37.9750507 C47.863862,37.9164172 51.3751499,34.6140052 51.4887324,29.4945642 C51.6169708,23.702059 51.6206347,17.9022246 51.4820152,12.110941 C51.3635474,7.14846687 47.8608087,3.76176915 42.8753905,3.72817702 C32.6089952,3.65916046 22.3413786,3.65183126 12.0749833,3.73306315 C7.11215951,3.77215217 3.65949482,7.22114803 3.55812546,12.2056097 C3.4421003,17.8967277 3.45370281,23.5939534 3.55079756,29.2856822 C3.64178571,34.588353 7.11582346,37.9237464 12.4749648,37.976883 C17.4554978,38.0275766 22.437252,37.9878768 27.417785,37.987266 M27.3829774,41.5119969 C22.4989286,41.5119969 17.6142691,41.5437567 12.7308309,41.5046677 C5.14217432,41.4435911 0.0816450777,36.4139327 0.0297390822,28.8783012 C-0.00751110289,23.4846263 -0.0130070318,18.0903406 0.0315710585,12.6972764 C0.0908049593,5.48168634 5.06217802,0.287121118 12.2459678,0.202835404 C22.4195429,0.0819037267 32.596782,0.0843467909 42.7715785,0.201003106 C49.9804053,0.283456522 54.9499463,5.46947101 54.9896392,12.6697919 C55.0195614,18.1654648 55.0262787,23.6611377 54.9878072,29.1561998 C54.9377332,36.3131563 49.8668227,41.402059 42.6457828,41.4979493 C37.5589952,41.5657443 32.4703756,41.5113861 27.3829774,41.5119969" id="Fill-1" fill="#10446B" mask="url(#mask-2)"></path>
                    </g>
                    <path d="M19.0043221,21.4392908 L19.0043221,27.5015232 C19.0049409,29.6580389 19.9202176,30.5719097 22.0942318,29.6318588 C26.8847367,27.559972 31.682049,25.5014797 36.423665,23.3260899 C37.1322463,23.0003598 37.8742455,22.1218019 37.9949209,21.4015427 C38.0747523,20.9199492 37.1966065,20.0200819 36.5511477,19.7266204 C31.7061841,17.5287035 26.8240896,15.409327 21.9296181,13.3203927 C19.9072218,12.4576646 19.029076,13.4019774 19.0098917,15.3764496 C18.9907074,17.3965849 19.0055598,19.4185467 19.0043221,21.4392908" id="Fill-4" fill="#FEFEFE"></path>
                    <path d="M22.5366767,25.6932647 C25.8772269,24.2107362 28.608829,22.9991421 32.0026002,21.4940865 C28.5735546,19.9872044 25.8345263,18.7841341 22.8683801,17.4818227 C22.7062415,18.3786458 22.5552422,18.8480625 22.5484349,19.3193056 C22.5205867,21.2213257 22.5366767,23.1233458 22.5366767,25.6932647 M19.0049021,21.4392908 C19.0055209,19.4179379 18.9906686,17.3965849 19.0098529,15.3764496 C19.0290372,13.4019774 19.9071848,12.4576646 21.9295853,13.3203927 C26.8240668,15.4087182 31.7061712,17.5287035 36.5511448,19.7266204 C37.1966049,20.0200819 38.0747525,20.9199492 37.9949209,21.4009338 C37.8742452,22.1218019 37.1322445,23.0003598 36.4236617,23.325481 C31.6820361,25.5014797 26.884714,27.5593631 22.0941993,29.6318588 C19.9201806,30.5719097 19.0049021,29.6580389 19.0042832,27.5015232 C19.0042832,25.4801703 19.0042832,23.4594261 19.0049021,21.4392908" id="Fill-6" fill="#10446B"></path>
                </g>
            </g>
        </g>
    </g>
</svg>