<?xml version="1.0" encoding="UTF-8"?>
<svg width="20px" height="38px" viewBox="0 0 20 38" version="1.1" xmlns="http://www.w3.org/2000/svg" xmlns:xlink="http://www.w3.org/1999/xlink">
    <!-- Generator: Sketch 51.2 (57519) - http://www.bohemiancoding.com/sketch -->
    <title>Fill 1</title>
    <desc>Created with Sketch.</desc>
    <defs></defs>
    <g id="Symbols" stroke="none" stroke-width="1" fill="none" fill-rule="evenodd">
        <g id="mobile-footer" transform="translate(-142.000000, -108.000000)" fill="#10446B">
            <g id="Group-2" transform="translate(142.000000, 107.000000)">
                <path d="M15.9486825,7.41404167 C17.1349672,7.37067161 18.3212519,7.4026285 19.5109884,7.4026285 L20,7.4026285 L20,1.27603683 C19.3671614,1.21554701 18.7044069,1.1231003 18.0405017,1.09228473 C16.8231504,1.03864282 15.6046485,0.978152997 14.3861466,1.00782725 C12.5244506,1.04663204 10.7640087,1.49516977 9.22563572,2.58741049 C7.46289265,3.84628356 6.49522495,5.61418417 6.12702796,7.70051233 C5.97284547,8.558783 5.93487516,9.45357582 5.91071223,10.3266836 C5.87734438,11.701971 5.90495915,13.0738345 5.90726038,14.449122 L5.90726038,14.9649974 L0,14.9649974 L0,21.8060538 L5.8715913,21.8060538 L5.8715913,39 L13.0479807,39 L13.0479807,21.8345867 L18.9023127,21.8345867 C19.2026234,19.5587998 19.4960304,17.3058394 19.8032447,14.9615735 C19.332643,14.9615735 18.910367,14.9581495 18.4880911,14.9615735 C16.8231504,14.9684214 13.001956,14.9615735 13.001956,14.9615735 C13.001956,14.9615735 13.0180647,11.5718609 13.0594868,10.1007028 C13.1170176,8.08513629 14.3205615,7.46996622 15.9486825,7.41404167" id="Fill-1"></path>
            </g>
        </g>
    </g>
</svg>