<?xml version="1.0" encoding="UTF-8"?>
<svg width="40px" height="55px" viewBox="0 0 40 55" version="1.1" xmlns="http://www.w3.org/2000/svg" xmlns:xlink="http://www.w3.org/1999/xlink">
    <!-- Generator: Sketch 51.2 (57519) - http://www.bohemiancoding.com/sketch -->
    <title>Fill 1</title>
    <desc>Created with Sketch.</desc>
    <defs></defs>
    <g id="Page-1" stroke="none" stroke-width="1" fill="none" fill-rule="evenodd">
        <g id="Account" transform="translate(-115.000000, -1396.000000)" fill="#10446B">
            <g id="Group-2" transform="translate(115.000000, 1396.000000)">
                <path d="M3.54010164,25.7394096 L3.54010164,32.6114773 C5.82336602,32.6114773 7.92903643,32.7388959 10.0128864,32.5809944 C12.7998388,32.3682237 13.7532699,33.4747534 13.6435617,36.2858875 C13.4514208,41.2247289 13.5902229,46.1775925 13.5902229,51.2164178 L21.812884,51.2164178 C21.9377453,50.7805122 22.0383617,50.5915182 22.0389678,50.4013048 C22.0632127,45.6295097 22.1917107,40.8540567 22.0474535,36.0871389 C21.9650208,33.3729404 23.0566479,32.4108997 25.6235777,32.5889199 C27.3316316,32.7078033 29.066961,32.726093 30.7653169,32.5480728 C31.491452,32.4724752 32.6030811,31.91098 32.7624914,31.3482654 C33.2431467,29.6479286 33.3425508,27.8384629 33.6365204,25.7436772 C32.0830278,25.7436772 30.8907843,25.760138 29.6985409,25.7406289 C21.0903857,25.5997979 22.1250372,27.1629616 22.1153393,17.8979853 C22.1104903,13.9260619 23.9294646,12.1867069 27.8904768,12.108061 C30.4683168,12.0568497 33.0473691,12.0983064 35.6203601,12.0983064 L35.6203601,3.53870474 C30.5852985,3.53870474 25.753288,3.4765196 20.9243081,3.55577517 C15.9007628,3.63807903 13.6423494,6.02793934 13.5981025,11.167968 C13.5641596,15.1276982 13.5368841,19.0892575 13.6090127,23.0477685 C13.6447739,25.0005038 12.8665123,25.8235424 10.9214644,25.758309 C8.52546121,25.6784438 6.12460902,25.7394096 3.54010164,25.7394096 M10.2213927,22.379583 C10.2213927,18.3863215 10.1947233,14.8545714 10.2268478,11.3234308 C10.2941274,3.84841112 14.0314802,0.0788942166 21.4055695,0.0447533551 C26.2503086,0.0228056584 31.0968661,0.127057218 35.9391807,0.00329659469 C38.2491145,-0.0558402547 39.2880088,0.669043394 39.17527,3.11865021 C39.0364679,6.15779654 39.0425291,9.21340365 39.17527,12.25255 C39.2777048,14.5857121 38.4861085,15.6361532 36.059193,15.4764228 C33.8480572,15.3319338 31.6108582,15.579455 29.4021469,15.413628 C26.5933741,15.2039055 25.1423162,16.1019321 25.5787246,19.1642455 C25.7054043,20.0512982 25.5987267,20.9718821 25.5987267,22.3777541 C28.7523833,22.3777541 31.7345072,22.4186012 34.7148127,22.3643416 C36.7762362,22.3265428 37.7308795,23.0630099 37.3065936,25.2858239 C36.7744178,28.073791 36.3374033,30.8830962 35.9549399,33.6954496 C35.7167336,35.4427302 34.8251271,36.1285957 33.1043446,36.0743361 C30.7101598,35.9999578 28.3117321,36.0560464 25.5981205,36.0560464 C25.5981205,41.3106907 25.4532572,46.2617253 25.6520655,51.1987378 C25.7726839,54.193379 24.6822691,55.1950475 21.7862146,54.969474 C19.0768459,54.7591419 16.3274732,54.7688964 13.6168923,54.967645 C10.8596399,55.1694419 10.099562,53.9568316 10.1844192,51.4029733 C10.3195845,47.3456977 10.2292722,43.2817158 10.2129069,39.2207823 C10.2086641,38.2319166 10.1232008,37.243051 10.065013,36.0554367 C7.38776882,36.0554367 4.97418806,36.0036157 2.56424403,36.0718975 C0.756179881,36.1237184 -0.0142021268,35.3287241 0.0118611512,33.5344999 C0.0536836205,30.6928828 0.078534653,27.8482175 0.00216318728,25.0078197 C-0.0517817369,22.9947282 0.90407383,22.3106916 2.7739625,22.3643416 C5.08147178,22.4301847 7.39140556,22.379583 10.2213927,22.379583" id="Fill-1"></path>
            </g>
        </g>
    </g>
</svg>