<?xml version="1.0" encoding="UTF-8"?>
<svg width="40px" height="39px" viewBox="0 0 40 39" version="1.1" xmlns="http://www.w3.org/2000/svg" xmlns:xlink="http://www.w3.org/1999/xlink">
    <!-- Generator: Sketch 51.2 (57519) - http://www.bohemiancoding.com/sketch -->
    <title>Group 3</title>
    <desc>Created with Sketch.</desc>
    <defs>
        <polygon id="path-1" points="0 0 39.6583835 0 39.6583835 38.8716049 0 38.8716049"></polygon>
    </defs>
    <g id="Symbols" stroke="none" stroke-width="1" fill="none" fill-rule="evenodd">
        <g id="mobile-footer" transform="translate(-306.000000, -107.000000)">
            <g id="Group-2" transform="translate(142.000000, 107.000000)">
                <g id="Group-3" transform="translate(164.000000, 0.000000)">
                    <mask id="mask-2" fill="white">
                        <use xlink:href="#path-1"></use>
                    </mask>
                    <g id="Clip-2"></g>
                    <path d="M29.685622,14.4822643 C29.6961975,14.6960581 29.7001634,14.9111477 29.7001634,15.1262372 C29.7001634,21.7123828 24.5855538,29.3078944 15.2301412,29.3078944 C12.3588742,29.3078944 9.68589919,28.4838164 7.4359469,27.0701857 C7.83385268,27.1155359 8.23836819,27.1388588 8.64949343,27.1388588 C11.0316403,27.1388588 13.2247489,26.3419909 14.96443,25.0048077 C12.7395947,24.9646404 10.8624312,23.5237996 10.2146776,21.5426435 C10.524013,21.6009509 10.842602,21.6333439 11.1704447,21.6333439 C11.6344478,21.6333439 12.0839094,21.572445 12.510898,21.4584216 C10.1842729,20.9997367 8.43137232,18.9861876 8.43137232,16.5709652 C8.43137232,16.5489379 8.43137232,16.5282064 8.43269427,16.5061792 C9.11746236,16.881938 9.9013764,17.1048019 10.7355244,17.1307163 C9.36995406,16.2366694 8.47235265,14.7116067 8.47235265,12.9818203 C8.47235265,12.0696333 8.72484436,11.2131623 9.16108658,10.4758975 C11.6688184,13.4923341 15.4165356,15.4760816 19.6427973,15.6846926 C19.5555489,15.3192995 19.5119247,14.9396535 19.5119247,14.548346 C19.5119247,11.7962364 21.7883159,9.56371053 24.5961294,9.56371053 C26.0595238,9.56371053 27.3814699,10.1701076 28.3094761,11.1393063 C29.4675009,10.9151467 30.5554625,10.5005162 31.5376685,9.9278079 C31.156948,11.0926603 30.3518828,12.0696333 29.3022576,12.6851004 C30.3307317,12.5658942 31.3102937,12.2976801 32.2224366,11.9011897 C31.5416343,12.90019 30.6784035,13.7786882 29.685622,14.4822643 M34.7010855,0 L4.95729793,0 C2.21954753,0 0,2.17551416 0,4.85895062 L0,34.0126543 C0,36.6973865 2.21954753,38.8716049 4.95729793,38.8716049 L34.7010855,38.8716049 C37.4388359,38.8716049 39.6583835,36.6973865 39.6583835,34.0126543 L39.6583835,4.85895062 C39.6583835,2.17551416 37.4388359,0 34.7010855,0" id="Fill-1" fill="#10446B" mask="url(#mask-2)"></path>
                </g>
            </g>
        </g>
    </g>
</svg>