<?xml version="1.0" encoding="UTF-8"?>
<svg width="38px" height="40px" viewBox="0 0 38 40" version="1.1" xmlns="http://www.w3.org/2000/svg" xmlns:xlink="http://www.w3.org/1999/xlink">
    <!-- Generator: Sketch 51.2 (57519) - http://www.bohemiancoding.com/sketch -->
    <title>Group 6</title>
    <desc>Created with Sketch.</desc>
    <defs>
        <polygon id="path-1" points="0 0.0164381102 37.9665555 0.0164381102 37.9665555 39.4736595 0 39.4736595"></polygon>
    </defs>
    <g id="Symbols" stroke="none" stroke-width="1" fill="none" fill-rule="evenodd">
        <g id="mobile-footer" transform="translate(-397.000000, -108.000000)">
            <g id="Group-2" transform="translate(142.000000, 107.000000)">
                <g id="Group-6" transform="translate(255.000000, 1.000000)">
                    <g id="Group">
                        <g id="Group-3">
                            <mask id="mask-2" fill="white">
                                <use xlink:href="#path-1"></use>
                            </mask>
                            <g id="Clip-2"></g>
                            <path d="M23.7078129,28.8732911 C25.2014251,28.8311498 26.6930274,28.7561459 28.1769256,28.5566125 C29.8504887,28.3316009 30.8754838,27.3642443 31.203713,25.6625071 C31.5327982,23.9564398 31.5990842,22.2241598 31.6268119,20.492305 C31.6442674,19.398795 31.6119618,18.3031973 31.5673741,17.210074 C31.5198462,16.045581 31.4263164,14.8835236 31.1989491,13.7382842 C30.9061146,12.2631051 30.0785632,11.3044087 28.649525,10.9789538 C28.0710392,10.8472331 27.4733859,10.7909415 26.8812782,10.7413385 C24.3028237,10.5253351 21.7176327,10.4826911 19.1327767,10.4777424 C17.4905142,10.4745721 15.8479167,10.5249098 14.2059148,10.5693322 C12.7309863,10.6092311 11.2590725,10.6974573 9.79225759,10.8826473 C7.97547796,11.1120277 7.01829481,12.3516405 6.76692165,13.7866887 C6.46820666,15.4920215 6.38029677,17.2136309 6.35223408,18.9389904 C6.33440646,20.032539 6.36734476,21.1280981 6.41133692,22.2212601 C6.45845544,23.3922483 6.55172478,24.5609941 6.78180901,25.7121488 C7.0748668,27.1784744 7.89925465,28.1343098 9.3205142,28.4592621 C9.90484329,28.5928772 10.5086748,28.650058 11.1069236,28.7000863 C13.7287375,28.9192987 16.3573624,28.9419931 19.4666259,28.9757835 C20.5599167,28.9497642 22.1340323,28.9177135 23.7078129,28.8732911 Z M18.9841636,39.4736571 C8.41383643,39.4683991 -0.0451273264,30.4656542 0.000167482584,19.6544654 C0.0453134179,8.88924558 8.53929971,0.00894247126 19.0085416,0.0164428579 C29.4920754,0.0239045827 38.0558834,8.96912083 37.9658521,19.7672032 C38.0311332,30.5013003 29.5413526,39.4789925 18.9841636,39.4736571 Z" id="Fill-1" fill="#10446B" mask="url(#mask-2)"></path>
                        </g>
                        <path d="M16.72,16.3157895 C18.9216392,17.6352358 21.1017431,18.9417617 23.3066667,20.2631382 C21.1052141,21.5824663 18.9258193,22.888559 16.72,24.2105263 L16.72,16.3157895 Z" id="Fill-4" fill="#10446B"></path>
                    </g>
                </g>
            </g>
        </g>
    </g>
</svg>