<svg id="Layer_1" data-name="Layer 1" xmlns="http://www.w3.org/2000/svg" xmlns:xlink="http://www.w3.org/1999/xlink" viewBox="0 0 49.3 49.3"><defs><style>.cls-1{fill:none;}.cls-2{isolation:isolate;}.cls-3{clip-path:url(#clip-path);}.cls-4{clip-path:url(#clip-path-2);}.cls-5{fill:#00416b;}</style><clipPath id="clip-path" transform="translate(5 5)"><path class="cls-1" d="M19.6,0A19.6,19.6,0,1,0,39.2,19.6,19.63,19.63,0,0,0,19.6,0Zm0,9.5a4.87,4.87,0,0,1,4.9,5,5.16,5.16,0,0,1-4.9,5.4,5.16,5.16,0,0,1-4.9-5.4A4.81,4.81,0,0,1,19.6,9.5Zm9.5,20.3H10.2V29c0-5.2,3.4-8.1,9.5-8.1s9.5,2.9,9.5,8.1v.8Z"/></clipPath><clipPath id="clip-path-2" transform="translate(5 5)"><rect class="cls-1" width="40" height="40"/></clipPath></defs><title>icon-user</title><g class="cls-2"><g class="cls-3"><g class="cls-4"><rect class="cls-5" width="49.3" height="49.3"/></g></g></g></svg>