<svg id="Layer_1" data-name="Layer 1" xmlns="http://www.w3.org/2000/svg" viewBox="0 0 39 39"><defs><style>.cls-1{fill:#00416b;}.cls-2{fill:none;}.cls-3{fill:#ff0;}</style></defs><title>icon-home</title><circle class="cls-1" cx="19.5" cy="19.7" r="15.6"/><path class="cls-2" d="M26.2,15.9a1.7,1.7,0,1,0-1.7-1.7A1.69,1.69,0,0,0,26.2,15.9Z"/><path class="cls-2" d="M12.8,15.9a1.7,1.7,0,0,0,0-3.4,1.75,1.75,0,0,0-1.7,1.7A1.63,1.63,0,0,0,12.8,15.9Z"/><path class="cls-2" d="M18.6,20.6a3.18,3.18,0,0,0,1.4.2v.5h1.7V17.6H20v1.3a.1.1,0,0,1-.1.1.45.45,0,0,1-.5,0c-.1,0-.1-.1-.2-.1l-.1-.1v-4c0-.1,0-.1.1-.1s.1-.1.2-.1a.45.45,0,0,1,.5,0c.1,0,.1.1.2.1l.3.4L21.9,14l-.3-.4c-.1-.2-.3-.3-.4-.5s-.3-.2-.5-.3-.3-.1-.5-.2a2.57,2.57,0,0,0-1.5.1,9.22,9.22,0,0,0-.8.5,1.5,1.5,0,0,0-.5,1.2V19a1.5,1.5,0,0,0,.5,1.2A1.61,1.61,0,0,0,18.6,20.6Z"/><path class="cls-2" d="M26.4,21.2h0v.2c0,1.8-3.2,3.4-6.9,3.4s-6.9-1.6-6.9-3.4v-.2h0V19.7H10.8v6.9h1.8v-2a11.54,11.54,0,0,0,6.9,2,11.54,11.54,0,0,0,6.9-2v2h1.8V19.7H26.4Z"/><path class="cls-3" d="M19.5,0A19.5,19.5,0,1,0,39,19.5,19.46,19.46,0,0,0,19.5,0Zm6.7,12.5a1.7,1.7,0,1,1-1.7,1.7A1.69,1.69,0,0,1,26.2,12.5Zm-8.9,1.8a1.68,1.68,0,0,1,.5-1.2,3.51,3.51,0,0,1,.8-.5,2.57,2.57,0,0,1,1.5-.1.76.76,0,0,1,.5.2c.2.1.3.2.5.3a1,1,0,0,1,.4.5l.3.4L20.3,15l-.3-.4c0-.1-.1-.1-.2-.1a.45.45,0,0,0-.5,0c-.1,0-.1.1-.2.1l-.1.1v4c0,.1,0,.1.1.1s.1.1.2.1a.45.45,0,0,0,.5,0,.1.1,0,0,0,.1-.1V17.5h1.7v3.7H19.9v-.4a2.2,2.2,0,0,1-1.4-.2,9.22,9.22,0,0,1-.8-.5,1.5,1.5,0,0,1-.5-1.2V14.3Zm-4.5-1.8a1.7,1.7,0,1,1,0,3.4,1.75,1.75,0,0,1-1.7-1.7A1.63,1.63,0,0,1,12.8,12.5Zm15.4,8.7v5.4H26.4v-2a11.54,11.54,0,0,1-6.9,2,11.54,11.54,0,0,1-6.9-2v2H10.8V19.7h1.8v1.5h0v.2c0,1.8,3.2,3.4,6.9,3.4s6.9-1.6,6.9-3.4v-.2h0V19.7h1.8Z"/></svg>