<?xml version="1.0" encoding="utf-8"?>
<!-- Generator: Adobe Illustrator 23.0.1, SVG Export Plug-In . SVG Version: 6.00 Build 0)  -->
<svg version="1.1" id="Layer_1" xmlns="http://www.w3.org/2000/svg" xmlns:xlink="http://www.w3.org/1999/xlink" x="0px" y="0px"
	 viewBox="0 0 39 39" style="enable-background:new 0 0 39 39;" xml:space="preserve">
<style type="text/css">
	.st0{fill:#00416B;}
	.st1{fill:none;}
	.st2{fill:#FFFF00;}
</style>
<title>icon-home</title>
<circle class="st0" cx="19.5" cy="19.7" r="15.6"/>
<path class="st1" d="M26.2,15.9c0.9,0,1.7-0.8,1.7-1.7s-0.8-1.7-1.7-1.7c-0.9,0-1.7,0.8-1.7,1.7C24.5,15.1,25.2,15.9,26.2,15.9
	C26.2,15.9,26.2,15.9,26.2,15.9z"/>
<path class="st1" d="M12.8,15.9c0.9,0,1.7-0.8,1.7-1.7c0-0.9-0.8-1.7-1.7-1.7c-0.9,0-1.7,0.8-1.7,1.7c0,0.9,0.7,1.7,1.6,1.7
	C12.7,15.9,12.8,15.9,12.8,15.9z"/>
<path class="st1" d="M18.6,20.6c0.4,0.2,0.9,0.2,1.4,0.2v0.5h1.7v-3.7H20v1.3c0,0.1,0,0.1-0.1,0.1l0,0c-0.2,0.1-0.3,0.1-0.5,0
	c-0.1,0-0.1-0.1-0.2-0.1l-0.1-0.1v-4c0-0.1,0-0.1,0.1-0.1s0.1-0.1,0.2-0.1c0.2-0.1,0.3-0.1,0.5,0c0.1,0,0.1,0.1,0.2,0.1l0.3,0.4
	l1.5-1.1l-0.3-0.4c-0.1-0.2-0.3-0.3-0.4-0.5s-0.3-0.2-0.5-0.3s-0.3-0.1-0.5-0.2c-0.5-0.1-1-0.1-1.5,0.1c-0.3,0.2-0.5,0.3-0.8,0.5
	c-0.3,0.3-0.5,0.7-0.5,1.2V19c0,0.5,0.2,0.9,0.5,1.2C18.1,20.4,18.3,20.5,18.6,20.6z"/>
<path class="st1" d="M26.4,21.2L26.4,21.2v0.2c0,1.8-3.2,3.4-6.9,3.4s-6.9-1.6-6.9-3.4v-0.2l0,0v-1.5h-1.8v6.9h1.8v-2
	c2,1.4,4.4,2.1,6.9,2c2.5,0.1,4.9-0.6,6.9-2v2h1.8v-6.9h-1.8V21.2z"/>
<path class="st2" d="M19.5,0C8.7,0,0,8.7,0,19.5S8.7,39,19.5,39S39,30.3,39,19.5C39,8.8,30.3,0,19.5,0C19.6,0,19.5,0,19.5,0z
	 M26.7,12.5c0.9,0,1.7,0.8,1.7,1.7s-0.8,1.7-1.7,1.7c-0.9,0-1.7-0.8-1.7-1.7C25,13.3,25.7,12.5,26.7,12.5
	C26.7,12.5,26.7,12.5,26.7,12.5z M17.8,14.3c0-0.5,0.2-0.9,0.5-1.2c0.2-0.2,0.5-0.4,0.8-0.5c0.5-0.2,1-0.2,1.5-0.1
	c0.2,0,0.4,0.1,0.5,0.2c0.2,0.1,0.3,0.2,0.5,0.3c0.2,0.1,0.3,0.3,0.4,0.5l0.3,0.4L20.8,15l-0.3-0.4c0-0.1-0.1-0.1-0.2-0.1
	c-0.2-0.1-0.3-0.1-0.5,0c-0.1,0-0.1,0.1-0.2,0.1l-0.1,0.1v4c0,0.1,0,0.1,0.1,0.1s0.1,0.1,0.2,0.1c0.2,0.1,0.3,0.1,0.5,0
	c0.1,0,0.1,0,0.1-0.1l0,0v-1.3h1.7v3.7h-1.7v-0.4c-0.5,0.1-1,0-1.4-0.2c-0.3-0.2-0.5-0.3-0.8-0.5c-0.3-0.3-0.5-0.7-0.5-1.2v-4.6
	H17.8z M13.3,12.5c0.9,0,1.7,0.8,1.7,1.7c0,0.9-0.8,1.7-1.7,1.7c0,0,0,0,0,0c-0.9,0-1.7-0.8-1.7-1.7c0-0.9,0.7-1.7,1.6-1.7
	C13.2,12.5,13.3,12.5,13.3,12.5z M28.7,21.2v5.4h-1.8v-2c-2,1.4-4.4,2.1-6.9,2c-2.5,0.1-4.9-0.6-6.9-2v2h-1.8v-6.9h1.8v1.5l0,0v0.2
	c0,1.8,3.2,3.4,6.9,3.4s6.9-1.6,6.9-3.4v-0.2l0,0v-1.5h1.8L28.7,21.2z"/>
</svg>
