<?xml version="1.0" encoding="utf-8"?>
<!-- Generator: Adobe Illustrator 23.0.1, SVG Export Plug-In . SVG Version: 6.00 Build 0)  -->
<svg version="1.1" id="Layer_1" xmlns="http://www.w3.org/2000/svg" xmlns:xlink="http://www.w3.org/1999/xlink" x="0px" y="0px"
	 viewBox="0 0 39.2 39.2" style="enable-background:new 0 0 39.2 39.2;" xml:space="preserve">
<style type="text/css">
	.st0{clip-path:url(#SVGID_2_);}
	.st1{clip-path:url(#SVGID_4_);}
	.st2{fill:#FFFF00;}
</style>
<title>icon-user</title>
<g>
	<g>
		<defs>
			<path id="SVGID_1_" d="M19.6,0C8.8,0,0,8.8,0,19.6s8.8,19.6,19.6,19.6s19.6-8.8,19.6-19.6C39.2,8.8,30.4,0,19.6,0z M19.6,9.5
				c2.7,0,4.9,2.1,4.9,4.8c0,0.1,0,0.1,0,0.2c0.1,2.8-2.1,5.3-4.9,5.4c-2.8-0.1-5-2.6-4.9-5.4c-0.1-2.7,2-4.9,4.6-5
				C19.4,9.5,19.5,9.5,19.6,9.5z M29.1,29.8H10.2V29c0-5.2,3.4-8.1,9.5-8.1s9.5,2.9,9.5,8.1v0.8H29.1z"/>
		</defs>
		<use xlink:href="#SVGID_1_"  style="overflow:visible;fill:#FFFF00;"/>
		<clipPath id="SVGID_2_">
			<use xlink:href="#SVGID_1_"  style="overflow:visible;"/>
		</clipPath>
		<g class="st0">
			<g>
				<defs>
					<rect id="SVGID_3_" x="0" width="40" height="40"/>
				</defs>
				<use xlink:href="#SVGID_3_"  style="overflow:visible;fill:#FFFF00;"/>
				<clipPath id="SVGID_4_">
					<use xlink:href="#SVGID_3_"  style="overflow:visible;"/>
				</clipPath>
				<g class="st1">
					<rect x="-5" y="-5" class="st2" width="49.3" height="49.3"/>
				</g>
			</g>
		</g>
	</g>
</g>
</svg>
