<?xml version="1.0" encoding="UTF-8"?>
<svg width="31px" height="31px" viewBox="0 0 31 31" version="1.1" xmlns="http://www.w3.org/2000/svg" xmlns:xlink="http://www.w3.org/1999/xlink">
    <!-- Generator: Sketch 51.2 (57519) - http://www.bohemiancoding.com/sketch -->
    <title>Group 9</title>
    <desc>Created with Sketch.</desc>
    <defs></defs>
    <g id="Symbols" stroke="none" stroke-width="1" fill="none" fill-rule="evenodd">
        <g id="Group-9" fill="#050201">
            <path d="M12.9343088,20.4251471 C13.6083437,20.7231786 14.3368618,20.8741919 15.0972914,20.8741919 C15.500467,20.8741919 15.9059776,20.8318443 16.3216065,20.7439529 C16.5745641,20.6904191 16.8103985,20.5873466 17.0501245,20.5002542 L17.0501245,22 L20,22 L20,13.6287499 L17.0501245,13.6287499 L17.0501245,16.4556548 L16.9543898,16.598678 C16.7403487,16.9102927 16.4905044,17.1220309 16.1846202,17.2498729 C15.5642902,17.5151449 14.870797,17.5622866 14.2450187,17.3018087 C13.9694894,17.1843539 13.7297634,17.0269485 13.5188356,16.8216024 C13.3460461,16.6490158 13.0837484,16.3909348 13.0907534,15.8140481 C13.0907534,14.755357 13.1125467,12.776204 13.1000934,10.4366964 C13.1125467,8.09718893 13.0907534,6.11803588 13.0907534,5.05934481 C13.0837484,4.48245805 13.3460461,4.22437713 13.5188356,4.05179051 C13.7297634,3.8464444 13.9694894,3.68983802 14.2450187,3.57158422 C14.870797,3.31110627 15.5642902,3.35824798 16.1846202,3.62352001 C16.4905044,3.75216096 16.7403487,3.96389918 16.9543898,4.2747149 L17.1746575,4.59911382 L19.7735056,2.62954892 L19.5462329,2.28277766 C19.2745953,1.87767851 18.9648194,1.52451514 18.616127,1.23287572 C18.2705479,0.946829375 17.9039539,0.709522772 17.51401,0.52894603 C17.1396326,0.353163362 16.7372354,0.218130312 16.3216065,0.130238977 C15.9059776,0.0423476429 15.500467,0 15.0972914,0 C14.3368618,0 13.6083437,0.150214281 12.9343088,0.449044817 C12.2696139,0.745478318 11.6531756,1.07626934 11.1511519,1.58603908 C10.6553549,2.09820585 10,2.73741556 10,4.18202949 L10,7.89024479 L10,12.9839471 L10,16.6905644 C10,18.1367763 10.6553549,18.7759861 11.1511519,19.2873538 C11.6531756,19.7987216 12.2696139,20.1287136 12.9343088,20.4251471" id="Fill-1"></path>
            <path d="M6,5.99957977 C6,4.34220479 4.65647785,3 2.99915872,3 C1.34015704,3 0,4.34220479 0,5.99957977 C0,7.65695476 1.34015704,9 2.99915872,9 C4.65647785,9 6,7.65695476 6,5.99957977" id="Fill-3"></path>
            <path d="M27.9966368,3 C26.3427691,3 25,4.34285714 25,5.99915966 C25,7.65630252 26.3427691,9 27.9966368,9 C29.6538677,9 31,7.65630252 31,5.99915966 C31,4.34285714 29.6538677,3 27.9966368,3" id="Fill-5"></path>
            <path d="M27.0198045,22.3935652 L26.9801117,22.3935652 L26.9801117,22.7272984 C26.9801117,25.5966274 21.6215922,28.1128202 15.5016201,28.1128202 C9.38488827,28.1128202 4.02312849,25.5966274 4.02312849,22.7272984 L4.02312849,22.3935652 L3.98343575,22.3935652 L3.98343575,20 L1,20 L1,22.3935652 L1,22.7272984 L1,31 L3.98343575,31 L3.98343575,27.7596839 C6.61449721,29.7287095 10.7320112,31 15.5016201,31 C20.2744693,31 24.3919832,29.7279334 27.0198045,27.7558033 L27.0198045,31 L30,31 L30,22.7272984 L30,22.3935652 L30,20 L27.0198045,20 L27.0198045,22.3935652 Z" id="Fill-7"></path>
        </g>
    </g>
</svg>