<?xml version="1.0" encoding="UTF-8"?>
<svg width="127px" height="28px" viewBox="0 0 127 28" version="1.1" xmlns="http://www.w3.org/2000/svg" xmlns:xlink="http://www.w3.org/1999/xlink">
    <!-- Generator: Sketch 51.2 (57519) - http://www.bohemiancoding.com/sketch -->
    <title>Group 4</title>
    <desc>Created with Sketch.</desc>
    <defs>
        <polygon id="path-1" points="0.0607717346 0.290295474 4.6320373 0.290295474 4.6320373 4.79280187 0.0607717346 4.79280187"></polygon>
        <polygon id="path-3" points="0 0 15 0 15 20 0 20"></polygon>
    </defs>
    <g id="Symbols" stroke="none" stroke-width="1" fill="none" fill-rule="evenodd">
        <g id="mobile-footer" transform="translate(-226.000000, -172.000000)">
            <g id="Group-4" transform="translate(226.000000, 172.000000)">
                <path d="M10.5612041,7.26280812 C10.0470897,6.82382794 9.45078691,6.50410826 8.79590307,6.30195747 C8.12877842,6.10149831 7.3261304,6 6.37571821,6 C5.52935299,6 4.71446415,6.18354277 3.94416687,6.54639923 C3.17212091,6.9101015 2.49450412,7.40659739 1.91131651,8.03757854 C1.3281289,8.66940551 0.868223832,9.41034316 0.520234824,10.2612373 C0.174868848,11.1129773 0,12.0256162 0,13.0016916 C0,13.9760754 0.174868848,14.8895602 0.520234824,15.7404543 C0.868223832,16.5913485 1.3281289,17.3322861 1.91131651,17.9641131 C2.49450412,18.5942484 3.17212091,19.092436 3.94416687,19.4561382 C4.71446415,19.8189947 5.52935299,20.0008458 6.37571821,20.0008458 C8.13489883,20.0008458 9.52947789,19.5897777 10.5612041,18.7676414 L10.5612041,20.0296037 C10.5612041,20.6986467 10.4545341,21.2670372 10.2446915,21.7356211 C10.0400949,22.2042049 9.76205346,22.5831319 9.41668748,22.868173 C9.06869848,23.1557516 8.66387709,23.3663606 8.20397202,23.5008458 C7.7370722,23.6336394 7.24743942,23.701305 6.73332501,23.701305 C6.20434674,23.701305 5.65263552,23.6243354 5.0869348,23.472088 C4.52385711,23.3189947 3.98176368,22.9645964 3.47376967,22.4105848 L1.54496628,24.6190188 C2.3537347,25.4225471 3.19397952,26.0196955 4.06570072,26.4121556 C4.93654759,26.8037699 5.82400699,27 6.73332501,27 C7.721334,27 8.65513365,26.8139198 9.5355983,26.4409135 C10.4134399,26.0679072 11.1854859,25.5663364 11.8464901,24.9345094 C12.5083687,24.3035283 13.034724,23.5676655 13.4229328,22.7260754 C13.8058956,21.8836394 14,20.9853794 14,20.0296037 L14,6.40260996 L10.5612041,6.40260996 L10.5612041,7.26280812 Z M10.2910317,14.4209763 C10.1126655,14.8701063 9.86784911,15.2676414 9.54871346,15.6118898 C9.23132651,15.9552924 8.85885586,16.228492 8.42343243,16.4289512 C7.98800899,16.6294103 7.50449663,16.7300628 6.96852361,16.7300628 C6.45440919,16.7300628 5.9743942,16.6294103 5.52935299,16.4289512 C5.0869348,16.228492 4.69872596,15.9552924 4.37609293,15.6118898 C4.04996253,15.2676414 3.7964027,14.8701063 3.61716213,14.4209763 C3.4387959,13.9718463 3.35048713,13.4981875 3.35048713,13.0016916 C3.35048713,12.5035041 3.4387959,12.0306912 3.61716213,11.5807153 C3.7964027,11.1315853 4.04996253,10.739971 4.37609293,10.4041808 C4.69872596,10.0700822 5.0869348,9.80195747 5.52935299,9.60149831 C5.9743942,9.40103915 6.45440919,9.30123248 6.96852361,9.30123248 C7.50449663,9.30123248 7.98800899,9.40103915 8.42343243,9.60149831 C8.85885586,9.80195747 9.23132651,10.0700822 9.54871346,10.4041808 C9.86784911,10.739971 10.1126655,11.1315853 10.2910317,11.5807153 C10.4702723,12.0306912 10.5612041,12.5035041 10.5612041,13.0016916 C10.5612041,13.4981875 10.4702723,13.9718463 10.2910317,14.4209763 Z" id="Fill-1" fill="#10446B"></path>
                <path d="M29.3623641,9.57924688 C29.1743096,9.20632038 28.9582657,8.86136336 28.7229789,8.54522339 C28.4876921,8.22823586 28.2401599,7.95447391 27.9830064,7.72478508 C26.6814944,6.5754934 25.0790953,6 23.1749344,6 C22.1874297,6 21.2585281,6.18392057 20.3873547,6.54752391 C19.5214295,6.91197482 18.7595902,7.40949267 18.1079595,8.04177261 C17.4519555,8.67490011 16.9341497,9.41651532 16.5606648,10.2691609 C16.1854305,11.1226541 16,12.0371716 16,13.0152561 C16,13.9916455 16.1854305,14.9078581 16.5606648,15.7605037 C16.9341497,16.6123017 17.4519555,17.3505267 18.1079595,17.9734835 C18.7595902,18.5964402 19.5214295,19.0905679 20.3873547,19.4541712 C21.2585281,19.8177745 22.1874297,20 23.1749344,20 C24.2472823,20 25.3047607,19.774549 26.3552418,19.3253421 C27.3996001,18.87444 28.3398725,18.1802882 29.1681869,17.2411914 L27.0357366,14.7976753 C26.7750843,15.1612786 26.4873173,15.4680954 26.1610646,15.7164306 C25.8348119,15.9664608 25.5024366,16.1673326 25.1665625,16.320741 C24.8306885,16.4733019 24.4895664,16.5834847 24.144071,16.6512895 C23.7959515,16.7190943 23.4696989,16.7513016 23.1749344,16.7513016 C22.7612145,16.7513016 22.3352493,16.6851919 21.898788,16.5512774 C21.469324,16.4165153 21.0582282,16.2198813 20.6856179,15.9605279 C20.3086343,15.7028696 20.0051231,15.3774065 19.7663376,14.9841385 C19.5310509,14.5908706 19.4085968,14.1459014 19.4085968,13.647536 L28.2174185,13.6763531 C28.7317256,13.5992251 29.1594402,13.393268 29.4935649,13.0576341 C29.8329376,12.7228478 30,12.3261896 30,11.8651168 C30,11.5015135 29.9422716,11.1226541 29.8198176,10.7293861 C29.7052355,10.3369657 29.5539173,9.95302095 29.3623641,9.57924688 Z M19.882669,10.8302458 C20.1835562,10.3327279 20.5657878,9.9199661 21.0424841,9.59450297 C21.5156816,9.26819228 22.2311633,9.10461315 23.1749344,9.10461315 C24.0627265,9.10461315 24.7370986,9.278363 25.1761839,9.62332001 C25.6248907,9.96742947 25.9756341,10.3708681 26.2327877,10.8302458 L19.882669,10.8302458 Z" id="Fill-3" fill="#10446B"></path>
                <polygon id="Fill-5" fill="#10446B" points="36.6029182 4 33.2628452 4 33.2628452 7.86889662 31 7.86889662 31 10.4673099 33.2628452 10.4673099 33.2628452 21 36.6029182 21 36.6029182 10.4673099 39 10.4673099 39 7.86889662 36.6029182 7.86889662"></polygon>
                <path d="M73.5815177,7.46326728 C73.3238167,7.0818028 72.8583772,6.74178347 72.1851991,6.44490092 C71.5111445,6.14886419 70.6959679,6 69.7475582,6 C68.81142,6 67.9375157,6.18269696 67.1170799,6.54639923 C66.2905084,6.9101015 65.5735036,7.40659739 64.9581768,8.03757854 C64.3481092,8.66855969 63.8642625,9.40949734 63.515402,10.2603915 C63.1726772,11.1121315 63,12.0247704 63,13.0008458 C63,13.9743838 63.1568996,14.8895602 63.4742049,15.7396085 C63.788004,16.5905027 64.2350363,17.3314403 64.8100426,17.9632673 C65.3850488,18.5942484 66.0573504,19.0915901 66.8313298,19.4561382 C67.6044328,19.8181489 68.4590533,20 69.3890558,20 C70.3409717,20 71.1579013,19.8849686 71.8442274,19.6557516 C72.5217881,19.4256887 73.1064363,19.120348 73.5815177,18.7380377 L73.5815177,19.7420251 L77,19.7420251 L77,6.40176414 L73.5815177,6.40176414 L73.5815177,7.46326728 Z M73.3106687,14.4209763 C73.1379915,14.8692605 72.8837966,15.2667956 72.569121,15.611044 C72.2509391,15.9544466 71.8749061,16.2268004 71.4383922,16.4281054 C71.0045079,16.6285645 70.517155,16.729217 69.9850989,16.729217 C69.4679439,16.729217 68.9902329,16.6285645 68.5440771,16.4281054 C68.0935387,16.2268004 67.7104934,15.9544466 67.3844227,15.611044 C67.0539694,15.2667956 66.8059103,14.8692605 66.6200851,14.4209763 C66.447408,13.9710005 66.3562484,13.4981875 66.3562484,13.0008458 C66.3562484,12.5026583 66.447408,12.0306912 66.6200851,11.5798695 C66.8059103,11.1307395 67.0539694,10.7391252 67.3844227,10.4041808 C67.7104934,10.0700822 68.0935387,9.80111165 68.5440771,9.60149831 C68.9902329,9.40019333 69.4679439,9.29954084 69.9850989,9.29954084 C70.517155,9.29954084 71.0045079,9.40019333 71.4383922,9.60149831 C71.8749061,9.80111165 72.2509391,10.0700822 72.569121,10.4041808 C72.8837966,10.7391252 73.1379915,11.1307395 73.3106687,11.5798695 C73.4903581,12.0306912 73.5815177,12.5026583 73.5815177,13.0008458 C73.5815177,13.4981875 73.4903581,13.9710005 73.3106687,14.4209763 Z" id="Fill-7" fill="#10446B"></path>
                <path d="M91.0488656,9.06610431 C90.4537522,8.42140482 89.7687609,7.91467272 88.986911,7.54931462 C88.2111693,7.18395653 87.4101222,7 86.5776614,7 C85.7076789,7 84.9101222,7.11156623 84.1815009,7.33214373 C83.4485166,7.55442453 82.8507853,7.952997 82.3734729,8.53126774 L82.3734729,7.25975343 L79,7.25975343 L79,28 L82.3734729,28 L82.3734729,19.6231649 C82.8298429,20.0668748 83.4048866,20.4330846 84.109075,20.7209425 C84.8071553,21.009652 85.6492147,21.1544326 86.6396161,21.1544326 C87.4685864,21.1544326 88.2582897,20.9662179 89.0183246,20.59064 C89.7783595,20.2159137 90.4537522,19.7100333 91.0488656,19.0747019 C91.6404887,18.4385189 92.1125654,17.6916214 92.4659686,16.8365642 C92.8219895,15.9789521 93,15.0693892 93,14.1061724 C93,13.1242193 92.8219895,12.2001784 92.4659686,11.3331982 C92.1125654,10.4670695 91.6404887,9.7108038 91.0488656,9.06610431 M89.2713787,15.5360938 C89.0933682,15.9883202 88.8394415,16.3834861 88.5183246,16.7207397 C88.1928447,17.0571417 87.8071553,17.3262633 87.3630017,17.5289561 C86.9188482,17.7307973 86.4397906,17.8321437 85.9267016,17.8321437 C85.4136126,17.8321437 84.9415358,17.7307973 84.5069808,17.5289561 C84.0715532,17.3262633 83.6963351,17.0571417 83.3804538,16.7207397 C83.0680628,16.3834861 82.8202443,15.9883202 82.6413613,15.5360938 C82.4633508,15.0830157 82.3734729,14.606943 82.3734729,14.1061724 C82.3734729,13.5866656 82.4633508,13.0952632 82.6413613,12.6319653 C82.8202443,12.1703707 83.0680628,11.7658366 83.3804538,11.4192149 C83.6963351,11.0725931 84.0715532,10.7983616 84.5069808,10.5965204 C84.9415358,10.3955309 85.4136126,10.2933328 85.9267016,10.2933328 C86.4397906,10.2933328 86.9188482,10.3955309 87.3630017,10.5965204 C87.8071553,10.7983616 88.1928447,11.0725931 88.5183246,11.4192149 C88.8394415,11.7658366 89.0933682,12.1703707 89.2713787,12.6319653 C89.4493892,13.0952632 89.5375218,13.5866656 89.5375218,14.1061724 C89.5375218,14.606943 89.4493892,15.0830157 89.2713787,15.5360938" id="Fill-9" fill="#10446B"></path>
                <path d="M107.045112,9.06610431 C106.453673,8.42140482 105.765406,7.91467272 104.990778,7.54931462 C104.210917,7.18395653 103.407502,7 102.575301,7 C101.706461,7 100.908281,7.11156623 100.182504,7.33214373 C99.448003,7.55442453 98.850458,7.952997 98.3759113,8.53126774 L98.3759113,7.25975343 L95,7.25975343 L95,28 L98.3759113,28 L98.3759113,19.6231649 C98.8286498,20.0668748 99.4070036,20.4330846 100.107483,20.7209425 C100.805346,21.009652 101.648888,21.1544326 102.637236,21.1544326 C103.465948,21.1544326 104.258022,20.9662179 105.018693,20.59064 C105.775002,20.2159137 106.453673,19.7100333 107.045112,19.0747019 C107.636551,18.4385189 108.10848,17.6916214 108.465263,16.8365642 C108.821173,15.9789521 109,15.0693892 109,14.1061724 C109,13.1242193 108.821173,12.2001784 108.465263,11.3331982 C108.10848,10.4670695 107.636551,9.7108038 107.045112,9.06610431 M105.269051,15.5360938 C105.090224,15.9883202 104.839865,16.3834861 104.515359,16.7207397 C104.189981,17.0571417 103.807901,17.3262633 103.360396,17.5289561 C102.916381,17.7307973 102.438345,17.8321437 101.925416,17.8321437 C101.412487,17.8321437 100.939685,17.7307973 100.505265,17.5289561 C100.069973,17.3262633 99.694872,17.0571417 99.379089,16.7207397 C99.0667954,16.3834861 98.8190541,15.9883202 98.6410991,15.5360938 C98.4631441,15.0830157 98.3759113,14.606943 98.3759113,14.1061724 C98.3759113,13.5866656 98.4631441,13.0952632 98.6410991,12.6319653 C98.8190541,12.1703707 99.0667954,11.7658366 99.379089,11.4192149 C99.694872,11.0725931 100.069973,10.7983616 100.505265,10.5965204 C100.939685,10.3955309 101.412487,10.2933328 101.925416,10.2933328 C102.438345,10.2933328 102.916381,10.3955309 103.360396,10.5965204 C103.807901,10.7983616 104.189981,11.0725931 104.515359,11.4192149 C104.839865,11.7658366 105.090224,12.1703707 105.269051,12.6319653 C105.447006,13.0952632 105.535111,13.5866656 105.535111,14.1061724 C105.535111,14.606943 105.447006,15.0830157 105.269051,15.5360938" id="Fill-11" fill="#10446B"></path>
                <polygon id="Fill-13" fill="#10446B" points="120.224629 7 116.572997 15.4817476 112.649852 7 109 7 114.670623 18.8456453 110.323739 28 114.067953 28 124 7"></polygon>
                <g id="Group-17" transform="translate(122.000000, 16.000000)">
                    <mask id="mask-2" fill="white">
                        <use xlink:href="#path-1"></use>
                    </mask>
                    <g id="Clip-16"></g>
                    <path d="M3.98011736,0.911421211 C3.54878004,0.497337387 3.01370337,0.290295474 2.37761732,0.290295474 C1.70240152,0.290295474 1.14457499,0.497337387 0.714147671,0.911421211 C0.280990365,1.32637863 0.0607717346,1.88023759 0.0607717346,2.57037729 C0.0607717346,3.20373335 0.280990365,3.73225807 0.714147671,4.15595143 C1.14457499,4.58051839 1.70240152,4.79280187 2.37761732,4.79280187 C3.01370337,4.79280187 3.54878004,4.58051839 3.98011736,4.15595143 C4.41418466,3.73225807 4.6325833,3.20373335 4.6325833,2.57037729 C4.6325833,1.88023759 4.41418466,1.32637863 3.98011736,0.911421211" id="Fill-15" fill="#10446B" mask="url(#mask-2)"></path>
                </g>
                <g id="Group-20" transform="translate(46.000000, 0.000000)">
                    <mask id="mask-4" fill="white">
                        <use xlink:href="#path-3"></use>
                    </mask>
                    <g id="Clip-19"></g>
                    <path d="M14.9785849,8.58115295 L14.9785849,0 L11.4647936,0 L11.4647936,7.7923846 L11.4647936,8.58115295 L11.4468049,8.58115295 C11.4468049,8.5292491 11.4622237,8.49181025 11.4647936,8.48074878 C11.3054651,8.8159966 9.88692822,9.65411615 7.5004283,9.65411615 C5.11307178,9.65411615 3.69796128,8.8159966 3.53863286,8.48074878 C3.53863286,8.49181025 3.55405174,8.5292491 3.55405174,8.58115295 L3.53606305,8.58115295 L3.53606305,7.7923846 L3.53606305,0 L0.0179886928,0 L0.0179886928,8.58115295 L0,8.58115295 C0,8.62710062 0.0179886928,8.66794299 0.0179886928,8.71389066 L0.0179886928,20 L3.53606305,20 L3.53606305,12.5309509 C4.67192051,12.9410764 6.0073668,13.183578 7.5004283,13.183578 C8.99605962,13.183578 10.3349323,12.9410764 11.4647936,12.5309509 L11.4647936,20 L14.9785849,20 L14.9785849,8.71389066 C14.9854377,8.66879387 15,8.6279515 15,8.58115295 L14.9785849,8.58115295 Z" id="Fill-18" fill="#10446B" mask="url(#mask-4)"></path>
                </g>
            </g>
        </g>
    </g>
</svg>