<?xml version="1.0" encoding="UTF-8"?>
<svg width="22px" height="25px" viewBox="0 0 22 25" version="1.1" xmlns="http://www.w3.org/2000/svg" xmlns:xlink="http://www.w3.org/1999/xlink">
    <!-- Generator: Sketch 51.2 (57519) - http://www.bohemiancoding.com/sketch -->
    <title>Group 7</title>
    <desc>Created with Sketch.</desc>
    <defs>
        <polygon id="path-1" points="0 0.0987804878 21.9944 0.0987804878 21.9944 25 0 25"></polygon>
        <polygon id="path-3" points="0 0.098800813 21.9944 0.098800813 21.9944 25 0 25"></polygon>
    </defs>
    <g id="Symbols" stroke="none" stroke-width="1" fill="none" fill-rule="evenodd">
        <g id="mobile-header" transform="translate(-20.000000, -16.000000)">
            <g id="Group-7" transform="translate(20.000000, 16.000000)">
                <g id="Group-3">
                    <mask id="mask-2" fill="white">
                        <use xlink:href="#path-1"></use>
                    </mask>
                    <g id="Clip-2"></g>
                    <path d="M6.056,6.74654472 C6.056,3.97743902 8.2726,1.72479675 10.9974,1.72479675 C13.7222,1.72479675 15.9388,3.97764228 15.9388,6.74654472 C15.9388,9.51544715 13.722,11.7682927 10.9974,11.7682927 C8.2728,11.7682927 6.056,9.51565041 6.056,6.74654472 M14.3018,12.4802846 C16.2364,11.324187 17.5386,9.18760163 17.5386,6.74654472 C17.5386,3.08089431 14.6042,0.0987804878 10.9972,0.0987804878 C7.3902,0.0987804878 4.456,3.08109756 4.456,6.74654472 C4.456,9.18760163 5.7582,11.324187 7.693,12.4802846 C3.2388,13.771748 0,17.600813 0,22.1121951 C0,23.9113821 2.6136,24.3784553 3.599,24.5546748 C5.2224,24.8418699 7.4808,25 9.958,25 C10.3084,25 10.7166,24.9953252 11.1632,24.9849593 C10.9248,24.9406504 10.6868,24.8821138 10.4496,24.8030488 C9.7762,24.579065 9.6168,23.8971545 9.8068,23.3731707 C7.4792,23.3668699 5.3764,23.2184959 3.8748,22.9528455 C1.7984,22.5817073 1.6012,22.1182927 1.6,22.1119919 C1.6,17.4404472 5.8156,13.6396341 10.9972,13.6396341 C16.1788,13.6396341 20.3944,17.4402439 20.3944,22.1119919 C20.3944,22.5609756 20.7526,22.925 21.1944,22.925 C21.6362,22.925 21.9944,22.5609756 21.9944,22.1119919 C21.9946,17.600813 18.7558,13.771748 14.3018,12.4802846" id="Fill-1" fill="#000000" mask="url(#mask-2)"></path>
                </g>
                <g id="Group-6">
                    <mask id="mask-4" fill="white">
                        <use xlink:href="#path-3"></use>
                    </mask>
                    <g id="Clip-5"></g>
                    <path d="M10.997,11.768313 C8.2724,11.768313 6.0556,9.51546748 6.0556,6.74656504 C6.0556,3.9776626 8.2722,1.72481707 10.997,1.72481707 C13.7218,1.72481707 15.9384,3.97745935 15.9384,6.74656504 C15.9384,9.51567073 13.7216,11.768313 10.997,11.768313 M14.3012,12.4803049 C16.2362,11.3242073 17.5384,9.18762195 17.5384,6.74656504 C17.5384,3.08111789 14.6042,0.098800813 10.9972,0.098800813 C7.3902,0.098800813 4.4558,3.08091463 4.4558,6.74656504 C4.4558,9.18762195 5.758,11.3242073 7.6928,12.4803049 C3.2386,13.7717683 -0.0002,17.6008333 0,22.1120122 C0,22.5609959 0.3582,22.9250203 0.8,22.9250203 C1.2418,22.9250203 1.6,22.5609959 1.6,22.1120122 C1.6,17.4402642 5.8156,13.6396545 10.9972,13.6396545 C16.1788,13.6396545 20.3944,17.4404675 20.3944,22.1120122 C20.393,22.118313 20.196,22.5817276 18.1196,22.9528659 C16.5854,23.2242073 14.4244,23.3738008 12.0364,23.3738008 C11.2388,23.3738008 9.7838,23.4185163 8.5948,23.3565244 L8.9504,24.9148577 C10.1394,24.9754268 11.2356,25.0000203 12.0364,25.0000203 C14.5136,25.0000203 16.772,24.8418902 18.3954,24.5546951 C19.3808,24.3784756 21.9944,23.9114024 21.9944,22.1122154 C21.9944,17.6008333 18.7556,13.7717683 14.3012,12.4803049" id="Fill-4" fill="#000000" mask="url(#mask-4)"></path>
                </g>
            </g>
        </g>
    </g>
</svg>