<?xml version="1.0" encoding="UTF-8"?>
<svg width="15px" height="14px" viewBox="0 0 15 14" version="1.1" xmlns="http://www.w3.org/2000/svg" xmlns:xlink="http://www.w3.org/1999/xlink">
    <!-- Generator: Sketch 51.2 (57519) - http://www.bohemiancoding.com/sketch -->
    <title>Group 3</title>
    <desc>Created with Sketch.</desc>
    <defs>
        <polygon id="path-1" points="0 0 14 0 14 13.5 0 13.5"></polygon>
    </defs>
    <g id="Page-1" stroke="none" stroke-width="1" fill="none" fill-rule="evenodd">
        <g id="experiencepage-copy" transform="translate(-346.000000, -660.000000)">
            <g id="Group-2" transform="translate(339.000000, 653.000000)">
                <g id="Group-3" transform="translate(7.225806, 6.967742)">
                    <mask id="mask-2" fill="white">
                        <use xlink:href="#path-1"></use>
                    </mask>
                    <g id="Clip-2"></g>
                    <path d="M13.6092919,2.19586469 L8.88463141,6.75006026 L13.6092919,11.3042558 C14.130236,11.8065994 14.130236,12.6211801 13.6092919,13.1233629 C13.0883477,13.6255457 12.2437715,13.6255457 11.7228273,13.1233629 L7,8.56756033 L2.27717268,13.1233629 C1.7562285,13.6255457 0.911652323,13.6255457 0.390708138,13.1233629 C-0.130236046,12.6211801 -0.130236046,11.8065994 0.390708138,11.3042558 L5.11520194,6.75006026 L0.390708138,2.19586469 C-0.130236046,1.69352117 -0.130236046,0.87910116 0.390708138,0.37675764 C0.911652323,-0.12558588 1.7562285,-0.12558588 2.27717268,0.37675764 L7,4.93256019 L11.7228273,0.37675764 C12.2437715,-0.12558588 13.0883477,-0.12558588 13.6092919,0.37675764 C14.130236,0.87910116 14.130236,1.69352117 13.6092919,2.19586469" id="Fill-1" fill="#10446B" mask="url(#mask-2)"></path>
                </g>
            </g>
        </g>
    </g>
</svg>