<?xml version="1.0" encoding="UTF-8"?>
<svg width="17px" height="24px" viewBox="0 0 17 24" version="1.1" xmlns="http://www.w3.org/2000/svg" xmlns:xlink="http://www.w3.org/1999/xlink">
    <!-- Generator: Sketch 51.2 (57519) - http://www.bohemiancoding.com/sketch -->
    <title>Fill 1</title>
    <desc>Created with Sketch.</desc>
    <defs></defs>
    <g id="Page-1" stroke="none" stroke-width="1" fill="none" fill-rule="evenodd">
        <g id="experiencepage-copy" transform="translate(-238.000000, -1518.000000)" fill="#00416B">
            <g id="Group-11" transform="translate(181.000000, 1518.000000)">
                <path d="M58.5358775,11.2317424 L58.5358775,14.2304628 C59.5264746,14.2304628 60.4400223,14.2860637 61.3441032,14.2171612 C62.5532259,14.1243158 62.9668732,14.6071651 62.9192761,15.8338418 C62.8359156,17.9889726 62.896135,20.1502222 62.896135,22.3489823 L66.4635468,22.3489823 C66.517718,22.158769 66.5613705,22.0762988 66.5616335,21.9932966 C66.5721522,19.9110588 66.6279012,17.8272247 66.565315,15.7471152 C66.5295515,14.5627376 67.0031553,14.1429381 68.116821,14.2206196 C68.8578622,14.272496 69.6107371,14.280477 70.3475709,14.2027954 C70.6626055,14.1698074 71.1448872,13.9247913 71.2140475,13.6792431 C71.4225804,12.9372779 71.465707,12.1476929 71.5932461,11.2336046 C70.9192614,11.2336046 70.4020051,11.2407875 69.8847488,11.2322744 C66.15009,11.1708209 66.5989748,11.8529287 66.5947674,7.81002995 C66.5926636,6.07682699 67.3818279,5.31783573 69.1003179,5.28351752 C70.218717,5.26117077 71.337642,5.27926099 72.4539374,5.27926099 L72.4539374,1.54416207 C70.2694697,1.54416207 68.1730959,1.51702673 66.078037,1.55161098 C63.8985656,1.58752539 62.9187502,2.63037353 62.8995536,4.87329511 C62.8848275,6.60117742 62.8729939,8.32985782 62.904287,10.0572081 C62.9198021,10.9093108 62.5821523,11.2684549 61.7382909,11.2399894 C60.6987819,11.2051391 59.6571692,11.2317424 58.5358775,11.2317424 M61.4345639,9.76563623 C61.4345639,8.02312213 61.4229933,6.48199477 61.4369306,4.94113345 C61.4661199,1.67930667 63.0875751,0.0344265673 66.2868329,0.0195287368 C68.3887289,0.00995156004 70.4914139,0.0554431495 72.5922581,0.00143851405 C73.5944257,-0.0243666566 74.0451513,0.291946208 73.9962395,1.36086555 C73.93602,2.68703849 73.9386497,4.02039432 73.9962395,5.34656726 C74.0406809,6.36467436 73.6972459,6.82304868 72.6443256,6.75334811 C71.6850216,6.69029837 70.71441,6.79830764 69.7561579,6.72594675 C68.5375683,6.6344315 67.9080251,7.02629765 68.0973614,8.36257984 C68.1523215,8.7496574 68.1060393,9.15136676 68.1060393,9.76483813 C69.4742571,9.76483813 70.7680553,9.78266232 72.0610645,9.75898541 C72.9554157,9.74249139 73.3695889,10.0638589 73.1855119,11.0338141 C72.9546268,12.2503815 72.7650275,13.4762602 72.5990952,14.7034689 C72.4957492,15.4659186 72.1089246,15.7652054 71.3623609,15.7415285 C70.3236409,15.7090725 69.2830801,15.7335475 68.1057763,15.7335475 C68.1057763,18.0264832 68.0429272,20.1869347 68.1291804,22.3412674 C68.1815109,23.6480199 67.708433,24.0851117 66.4519762,23.9866796 C65.2765133,23.8948983 64.0836945,23.8991548 62.9077056,23.9858815 C61.7114682,24.0739383 61.3817075,23.5447993 61.4185229,22.4303883 C61.4771645,20.6599408 61.4379824,18.8865669 61.4308823,17.1145232 C61.4290416,16.6830182 61.3919632,16.2515131 61.3667184,15.7332815 C60.2051927,15.7332815 59.1580577,15.7106687 58.1125004,15.7404644 C57.3280696,15.7630771 56.9938384,15.4161705 57.005146,14.6332363 C57.0232907,13.393258 57.0340724,12.1519494 57.0009385,10.9125031 C56.9775344,10.0340632 57.3922336,9.73557454 58.2034871,9.75898541 C59.2046028,9.78771694 60.2067705,9.76563623 61.4345639,9.76563623" id="Fill-1"></path>
            </g>
        </g>
    </g>
</svg>