<?xml version="1.0" encoding="UTF-8"?>
<svg width="22px" height="22px" viewBox="0 0 22 22" version="1.1" xmlns="http://www.w3.org/2000/svg" xmlns:xlink="http://www.w3.org/1999/xlink">
    <!-- Generator: Sketch 51.2 (57519) - http://www.bohemiancoding.com/sketch -->
    <title>Group 7</title>
    <desc>Created with Sketch.</desc>
    <defs>
        <polygon id="path-1" points="0 0.0323810996 14.0517553 0.0323810996 14.0517553 13.541702 0 13.541702"></polygon>
        <polygon id="path-3" points="0.00706500106 0.0240620265 14.0590636 0.0240620265 14.0590636 13.0776735 0.00706500106 13.0776735"></polygon>
    </defs>
    <g id="Page-1" stroke="none" stroke-width="1" fill="none" fill-rule="evenodd">
        <g id="experiencepage-copy" transform="translate(-181.000000, -1520.000000)">
            <g id="Group-11" transform="translate(181.000000, 1518.000000)">
                <g id="Group-7" transform="translate(0.000000, 2.000000)">
                    <g id="Group-3">
                        <mask id="mask-2" fill="white">
                            <use xlink:href="#path-1"></use>
                        </mask>
                        <g id="Clip-2"></g>
                        <path d="M10.7843205,13.541702 C11.662889,13.541702 12.5438346,13.4293151 13.4025784,13.2079133 C13.8477831,13.0929858 14.0996741,12.7204877 14.0441468,12.2579138 C13.9910416,11.8137245 13.6359902,11.3419582 13.0823323,11.3419582 C13.0012392,11.3419582 12.9181278,11.3527211 12.8358685,11.3740622 C12.1644283,11.5471925 11.4739259,11.6349587 10.7829749,11.6349587 C9.0174954,11.6349587 7.24986298,11.0654024 5.67137305,9.98777233 C4.44021999,9.14655664 2.31672875,7.39506711 1.92974239,5.11176076 C1.79491613,4.31715352 1.94795246,3.64347883 2.38423159,3.10902901 C2.94385478,2.42357518 3.95088049,2.01421526 5.07828999,2.01421526 C5.46662192,2.01421526 5.84252975,2.0634567 6.1963702,2.16046142 C8.32569224,2.74442984 10.333868,4.59149211 10.9709961,6.55297375 C11.1006195,6.95244843 11.4169185,7.19061812 11.8164635,7.19061812 C12.1380551,7.19061812 12.4505417,7.0294979 12.6320593,6.77007956 C12.800166,6.52992358 12.8390979,6.23281198 12.7418579,5.93348313 C11.7562716,2.90005313 7.7461546,0.0323626225 4.49009584,0.0323626225 C2.21912997,0.0323626225 0.661675813,1.38830385 0.104474656,3.85051462 C-0.615495799,7.03240804 2.57153514,9.97816425 3.97510077,11.0968134 C5.98130302,12.6960979 8.33564947,13.541702 10.783872,13.541702 L10.7843205,13.541702 Z" id="Fill-1" fill="#00416B" mask="url(#mask-2)"></path>
                    </g>
                    <g id="Group-6" transform="translate(7.544812, 8.047799)">
                        <mask id="mask-4" fill="white">
                            <use xlink:href="#path-3"></use>
                        </mask>
                        <g id="Clip-5"></g>
                        <path d="M10.084269,2.38656828 C8.07775275,0.841037231 5.72318204,0.0240620265 3.27464559,0.0240620265 C2.39580799,0.0240620265 1.5151763,0.132745081 0.656208308,0.346719028 C0.211272666,0.457678401 -0.0406183183,0.817827708 0.0145949655,1.26465566 C0.067789892,1.69380866 0.422931062,2.14960798 0.976633733,2.14983115 C1.05759229,2.14983115 1.14061405,2.1394315 1.22296302,2.1187661 C3.61180095,1.52406671 6.19211371,2.00990451 8.38772757,3.458268 C9.61897034,4.27104764 11.7423719,5.96364673 12.1293582,8.16939944 C12.2639602,8.93727758 12.1109239,9.58821542 11.6747345,10.1049844 C11.1153356,10.7672592 10.1081753,11.1627584 8.98081064,11.1627584 C8.59274782,11.1627584 8.21643632,11.1151789 7.86273043,11.0215374 C5.73318412,10.4569211 3.72505322,8.67210878 3.08810453,6.77731904 C2.95839143,6.39110365 2.64218213,6.16101694 2.2426371,6.16101694 C1.92104551,6.16101694 1.6084244,6.31652074 1.42726563,6.56722822 C1.25906919,6.79954662 1.22009247,7.08645203 1.31737729,7.37567839 C2.30278415,10.3066841 6.31281147,13.0776779 9.56909449,13.0776779 C11.839881,13.0776779 13.3975145,11.7676343 13.9545811,9.38830109 C14.6745516,6.31402125 11.4877449,3.46755181 10.084269,2.38656828" id="Fill-4" fill="#00416B" mask="url(#mask-4)"></path>
                    </g>
                </g>
            </g>
        </g>
    </g>
</svg>