<?xml version="1.0" encoding="UTF-8"?>
<svg width="15px" height="24px" viewBox="0 0 15 24" version="1.1" xmlns="http://www.w3.org/2000/svg" xmlns:xlink="http://www.w3.org/1999/xlink">
    <!-- Generator: Sketch 51.2 (57519) - http://www.bohemiancoding.com/sketch -->
    <title>Group 6</title>
    <desc>Created with Sketch.</desc>
    <defs>
        <polygon id="path-1" points="2.37769411e-05 0.252810656 14.3701301 0.252810656 14.3701301 23.7376013 2.37769411e-05 23.7376013"></polygon>
    </defs>
    <g id="Page-1" stroke="none" stroke-width="1" fill="none" fill-rule="evenodd">
        <g id="experiencepage-copy" transform="translate(-296.000000, -1518.000000)">
            <g id="Group-11" transform="translate(181.000000, 1518.000000)">
                <g id="Group-6" transform="translate(115.000000, 0.000000)">
                    <g id="Group-3" transform="translate(0.000000, 0.008165)">
                        <mask id="mask-2" fill="white">
                            <use xlink:href="#path-1"></use>
                        </mask>
                        <g id="Clip-2"></g>
                        <path d="M1.55477474,19.948741 C1.61121913,21.6466317 2.29927878,22.2291159 3.86107714,22.244767 C6.03124896,22.2666787 8.20167619,22.237724 10.3715926,22.2559837 C11.4098118,22.2651135 12.2105048,21.8978329 12.1775576,20.7472113 C12.1474199,19.6949313 11.3794187,19.3101735 10.3961114,19.3206076 C9.20490496,19.3333894 8.01139986,19.3584312 6.82249203,19.302087 C5.15342379,19.2227878 4.34123756,18.3434531 4.32514707,16.674778 C4.31186604,15.3277344 4.37341852,13.9778213 4.30650255,12.6341687 C4.25082437,11.5171972 4.72894155,11.1950441 5.74698378,11.2250421 C7.53251647,11.2777344 9.3208586,11.2239987 11.1076683,11.2448669 C12.0861228,11.2560836 12.8531025,10.9456688 12.8735348,9.84200078 C12.8949888,8.67051103 12.1147281,8.31966406 11.0772752,8.32983732 C9.20516037,8.34835787 7.33253476,8.31601212 5.46067537,8.34157569 C4.65129859,8.35279236 4.29322151,8.02620471 4.31569711,7.1846937 C4.34685645,6.01242139 4.31850656,4.83832311 4.32233763,3.66474653 C4.32565788,2.64246456 4.04318053,1.79286712 2.87547128,1.78112874 C1.68298779,1.76912951 1.43779949,2.64246456 1.4385657,3.65613839 C1.44060894,6.22032104 1.4385657,8.34157569 1.43933192,11.3484255 C1.45312376,15.1727009 1.4916047,18.0394727 1.55477474,19.948741 Z M5.71710146,16.430359 C5.66602057,17.4745526 6.19240919,17.8394856 7.09347617,17.8543542 C8.19835593,17.8728747 9.3040019,17.8540934 10.4088817,17.876005 C12.4041014,17.9156546 13.6101213,19.0154098 13.6221254,20.7824265 C13.6346402,22.6065698 12.3936298,23.7243239 10.3304725,23.7308452 C8.11969135,23.7376274 5.90916563,23.7428444 3.6988953,23.7290192 C1.83674128,23.7172809 0.740034465,22.8796827 0.291033399,21.0492788 C0.107142177,20.3003705 0.0205600602,19.5078999 0.017239802,18.7347323 C-0.00676821858,13.698448 -0.000893915661,8.66190289 0.0065128141,3.62587947 C0.00932226332,1.55914304 1.16221806,0.232185043 2.90228875,0.253053264 C4.59638663,0.273138927 5.69896774,1.55888219 5.72604062,3.56744845 C5.74034327,4.59964283 5.72859466,5.63235891 5.72859466,6.83306417 C7.63340123,6.83306417 9.40488667,6.81428278 11.1761167,6.83880294 C12.7210584,6.86019286 13.7357803,7.54284454 14.185803,8.79441609 C14.8820356,10.7286393 13.530946,12.6560804 11.3947429,12.7405967 C10.4609842,12.7776378 9.52467137,12.748944 8.58938018,12.7494657 C7.7000618,12.7499874 6.81074342,12.7497265 5.73012709,12.7497265 C5.73012709,14.1014655 5.77405666,15.2685208 5.71710146,16.430359 Z" id="Fill-1" fill="#00416B" mask="url(#mask-2)"></path>
                    </g>
                </g>
            </g>
        </g>
    </g>
</svg>