<svg id="Layer_1" data-name="Layer 1" xmlns="http://www.w3.org/2000/svg" xmlns:xlink="http://www.w3.org/1999/xlink" viewBox="0 0 101 101"><defs><style>.cls-1{fill:#fff;}.cls-1,.cls-4{fill-rule:evenodd;}.cls-2{fill:#f5f5f5;}.cls-3{mask:url(#mask);}.cls-4{fill:#00416b;}</style><mask id="mask" x="27.76" y="53.81" width="46.01" height="21.77" maskUnits="userSpaceOnUse"><g id="mask-2"><polygon id="path-1" class="cls-1" points="27.76 53.81 73.77 53.81 73.77 75.58 27.76 75.58 27.76 53.81"/></g></mask></defs><title>icon-person</title><g id="Page-1"><g id="edit-account"><g id="Group-2"><g id="Group"><circle id="Oval-6" class="cls-2" cx="50.5" cy="50.5" r="50.5"/><g id="Group-6"><g id="Group-3"><g class="cls-3"><path id="Fill-1" class="cls-4" d="M50.73,57.62c12,0,18.37,4.76,19.12,14.15H31.61c.76-9.39,7.13-14.15,19.12-14.15m-23,16.05v1.91h46V73.67c0-12.82-8.14-19.86-23-19.86s-23,7-23,19.86"/></g></g><path id="Fill-4" class="cls-4" d="M42.12,38a8.09,8.09,0,1,1,16.17,0c0,5-3.61,9-8.09,9s-8.08-4-8.08-9M62,38a11.82,11.82,0,1,0-23.63,0c0,7.07,5.29,12.78,11.81,12.78S62,45.09,62,38"/></g></g></g></g></g></svg>