<svg id="Layer_1" data-name="Layer 1" xmlns="http://www.w3.org/2000/svg" xmlns:xlink="http://www.w3.org/1999/xlink" viewBox="0 0 100 100"><defs><style>.cls-1{fill:#fff;}.cls-1,.cls-3{fill-rule:evenodd;}.cls-2{fill:#f5f5f5;}.cls-3{fill:#10446b;}.cls-4{mask:url(#mask);}.cls-5{mask:url(#mask-2-2);}</style><mask id="mask" x="22.81" y="23.39" width="53.8" height="53.8" maskUnits="userSpaceOnUse"><g id="mask-2"><polygon id="path-1" class="cls-1" points="22.81 23.39 76.61 23.39 76.61 77.19 22.81 77.19 22.81 23.39"/></g></mask><mask id="mask-2-2" x="65.53" y="41.54" width="18.06" height="11.09" maskUnits="userSpaceOnUse"><g id="mask-4"><polygon id="path-3" class="cls-1" points="65.53 41.54 83.59 41.54 83.59 52.63 65.53 52.63 65.53 41.54"/></g></mask></defs><title>icon-time</title><g id="Page-1"><g id="Order-History"><g id="Group-3"><g id="Group-2"><g id="Group"><circle id="Oval-6" class="cls-2" cx="50" cy="50" r="50"/><g id="Group-9"><path id="Fill-1" class="cls-3" d="M46.78,50.42a2.43,2.43,0,0,0,.46,1.42l6.18,8.54a2.48,2.48,0,0,0,3.44.57,2.42,2.42,0,0,0,.57-3.41l-5.71-7.73v-14a2.47,2.47,0,0,0-4.94,0Z"/><g id="Group-5"><g class="cls-4"><path id="Fill-3" class="cls-3" d="M27.7,50.29A22,22,0,0,1,65,34.43a2.45,2.45,0,0,0,3.39-3.53,26.9,26.9,0,1,0,8.26,19.39c0-1.35-1-5-2.34-5s-2.55,3.62-2.55,5a22,22,0,0,1-44,0Z"/></g></g><g id="Group-8"><g class="cls-5"><path id="Fill-6" class="cls-3" d="M76.27,42.22a2.47,2.47,0,0,0-3.41,0l-6.62,6.42a2.3,2.3,0,0,0,0,3.31,2.47,2.47,0,0,0,3.41,0l4.93-4.74L79.47,52a2.47,2.47,0,0,0,3.41,0,2.28,2.28,0,0,0,0-3.31Z"/></g></g></g></g></g></g></g></g></svg>