<?xml version="1.0" encoding="utf-8"?>
<!-- Generator: Adobe Illustrator 23.0.1, SVG Export Plug-In . SVG Version: 6.00 Build 0)  -->
<svg version="1.1" id="Layer_1" xmlns="http://www.w3.org/2000/svg" xmlns:xlink="http://www.w3.org/1999/xlink" x="0px" y="0px"
	 viewBox="0 0 9.6 915" style="enable-background:new 0 0 9.6 915;" xml:space="preserve">
<style type="text/css">
	.st0{fill:#00416B;}
</style>
<g>
	<g>
		<path class="st0" d="M9.1,890.1c-0.1,1.4-0.2,2.8-0.2,4.3c-0.1,3.6,0.1,7.2,0.2,10.8c0.1,1.9,0.1,3.7,0.2,5.6c0,0.9,0,1.7,0.1,2.6
			c0.1,0.7-0.4,1.4-1,1.6c-0.4,0.1-0.8,0.1-1.2-0.1c-0.1-0.1-0.2-0.2-0.3-0.3c-0.4-0.5-0.4-1.2-0.4-1.8c0-0.7,0-1.5,0-2.2
			c0-3.8,0-7.6,0-11.4c0-3.8,0-7.6,0-11.4s0-7.5,0-11.3c0-3.8,0-7.5,0-11.3c0-3.7,0-7.5-0.1-11.2c-0.1-13.8-0.7-27.5-1-41.3
			c-0.2-11.2-0.2-22.4-0.3-33.6c-0.1-11-0.3-22-0.4-33.1c-0.2-21-0.3-42-0.4-63.1c-0.1-12.2-0.5-24.6,0-36.5
			c0.8-20.3-0.5-39.6-1-59.2c-0.9-35.4-1.7-70.7-0.6-106.4c0.5-16.1-0.2-32.7-0.1-49.1C2.6,418.8,3,405.9,3,393
			c0-9.3-0.3-18.6-0.4-28c-0.1-8.3,0-16.6-0.1-24.9c-0.2-18.4-0.5-36.8-0.7-55.2c-0.1-10.1,0-20.3-0.1-30.4
			c-0.3-22.9-0.6-45.9-1.1-68.8c-0.5-26.4,0-52.5,1.1-78.5c0.9-20.4,0.6-40.6-0.6-60.9C0.4,34.3,0.3,21.6,0,9.2
			C-0.2,3.5,0.4-1.2,1.9,0.3C2.8,1.2,3.8,6.2,4,9.8c0.6,17.7,1.1,35.5,1.2,53.3c0.1,16-0.2,32-0.6,48c-0.3,14.3-1.2,28.4-1.4,42.7
			c-0.1,8.9,0.5,18,0.7,27c0.3,15.6,0.5,31.3,0.7,46.9c0.3,24.5,0.5,49,0.7,73.5C5.6,329.6,6,358,6.2,386.4
			c0.1,10.8-0.5,21.6-0.6,32.4c-0.1,19.2,0.1,38.3,0,57.5c0,10.2-0.4,20.3-0.6,30.5c0,2.5-0.2,5-0.2,7.4c0.5,26.2,1.1,52.3,1.6,78.5
			c0.4,21.4,1.4,42.6,0.4,64.4c-0.5,12.3,0.4,25.6,0.6,38.4c0.1,8.3,0.2,16.7,0,24.9c-0.6,18.7-0.3,37,0.4,55.6
			c0.2,6.1-0.3,12.6-0.2,18.8c0.2,11.6,1.1,23.3,0.8,34.7C8.1,850,10.6,869.6,9.1,890.1z"/>
	</g>
</g>
</svg>
