<?xml version="1.0" encoding="utf-8"?>
<!-- Generator: Adobe Illustrator 23.0.1, SVG Export Plug-In . SVG Version: 6.00 Build 0)  -->
<svg version="1.1" id="Layer_1" xmlns="http://www.w3.org/2000/svg" xmlns:xlink="http://www.w3.org/1999/xlink" x="0px" y="0px"
	 viewBox="0 0 915 9.6" style="enable-background:new 0 0 915 9.6;" xml:space="preserve">
<style type="text/css">
	.st0{fill:#00416B;}
</style>
<g>
	<g>
		<path class="st0" d="M25,9.1c-1.4-0.1-2.8-0.2-4.3-0.2C17.1,8.8,13.5,9,9.9,9.1C8,9.2,6.2,9.2,4.3,9.3c-0.9,0-1.7,0-2.6,0.1
			C1,9.5,0.3,9,0.1,8.4C0,8,0,7.6,0.2,7.2C0.3,7.1,0.4,7,0.5,6.9C1,6.5,1.7,6.5,2.3,6.5c0.7,0,1.5,0,2.2,0c3.8,0,7.6,0,11.4,0
			c3.8,0,7.6,0,11.4,0c3.8,0,7.5,0,11.3,0s7.5,0,11.3,0c3.7,0,7.5,0,11.2-0.1c13.8-0.1,27.5-0.7,41.3-1c11.2-0.2,22.4-0.2,33.6-0.3
			c11-0.1,22-0.3,33.1-0.4c21-0.2,42-0.3,63.1-0.4c12.2-0.1,24.6-0.5,36.5,0c20.3,0.8,39.6-0.5,59.2-1c35.4-0.9,70.7-1.7,106.4-0.6
			c16.1,0.5,32.7-0.2,49.1-0.1c12.9,0,25.8,0.4,38.7,0.4c9.3,0,18.6-0.3,28-0.4c8.3-0.1,16.6,0,24.9-0.1c18.4-0.2,36.8-0.5,55.2-0.7
			c10.1-0.1,20.3,0,30.4-0.1c22.9-0.3,45.9-0.6,68.8-1.1c26.4-0.5,52.5,0,78.5,1.1c20.4,0.9,40.6,0.6,60.9-0.6
			c12-0.7,24.7-0.8,37.1-1.1c5.7-0.2,10.4,0.4,8.9,1.9c-0.9,0.9-5.9,1.9-9.5,2.1c-17.7,0.6-35.5,1.1-53.3,1.2c-16,0.1-32-0.2-48-0.6
			c-14.3-0.3-28.4-1.2-42.7-1.4c-8.9-0.1-18,0.5-27,0.7c-15.6,0.3-31.3,0.5-46.9,0.7c-24.5,0.3-49,0.5-73.5,0.7
			c-28.4,0.3-56.8,0.7-85.2,0.9c-10.8,0.1-21.6-0.5-32.4-0.6c-19.2-0.1-38.3,0.1-57.5,0c-10.2,0-20.3-0.4-30.5-0.6
			c-2.5,0-5-0.2-7.4-0.2c-26.2,0.5-52.3,1.1-78.5,1.6C301,6.8,279.8,7.8,258,6.8c-12.3-0.5-25.6,0.4-38.4,0.6
			c-8.3,0.1-16.7,0.2-24.9,0c-18.7-0.6-37-0.3-55.6,0.4C133,8,126.5,7.5,120.3,7.6C108.7,7.8,97,8.7,85.6,8.4
			C65.1,8.1,45.5,10.6,25,9.1z"/>
	</g>
</g>
</svg>
