<?xml version="1.0" encoding="UTF-8"?>
<svg width="101px" height="101px" viewBox="0 0 101 101" version="1.1" xmlns="http://www.w3.org/2000/svg" xmlns:xlink="http://www.w3.org/1999/xlink">
    <!-- Generator: Sketch 51.2 (57519) - http://www.bohemiancoding.com/sketch -->
    <title>Group 17 Copy 9</title>
    <desc>Created with Sketch.</desc>
    <defs>
        <polygon id="path-1" points="0.000438796568 0.0133832953 100.909389 0.0133832953 100.909389 100.923211 0.000438796568 100.923211"></polygon>
        <path d="M0.0623655914,4.4906682 C0.0623655914,6.82569124 2.02043011,8.71900922 4.44086022,8.71900922 C6.86129032,8.71900922 8.82150538,6.82569124 8.82150538,4.4906682 C8.82150538,2.15668203 6.86129032,0.263364055 4.44086022,0.263364055 C2.02043011,0.263364055 0.0623655914,2.15668203 0.0623655914,4.4906682 Z" id="path-3"></path>
    </defs>
    <g id="Page-1" stroke="none" stroke-width="1" fill="none" fill-rule="evenodd">
        <g id="Contact-Us" transform="translate(-238.000000, -137.000000)">
            <g id="Group-17-Copy-9" transform="translate(238.000000, 137.000000)">
                <g id="Group-8">
                    <g id="Group-3">
                        <mask id="mask-2" fill="white">
                            <use xlink:href="#path-1"></use>
                        </mask>
                        <g id="Clip-2"></g>
                        <path d="M0.000438796568,50.4684066 C0.000438796568,22.6026306 22.5896861,0.0133832953 50.4543652,0.0133832953 C78.3212382,0.0133832953 100.909389,22.6026306 100.909389,50.4684066 C100.909389,78.3330857 78.3212382,100.92343 50.4543652,100.92343 C22.5896861,100.92343 0.000438796568,78.3330857 0.000438796568,50.4684066" id="Fill-1" fill="#00416B" mask="url(#mask-2)"></path>
                    </g>
                    <path d="M51.6436136,49.0581145 C51.5339144,49.1919474 51.4264093,49.2742218 51.2914793,49.3290714 C50.8428098,49.5155599 50.3853644,49.5298208 50.0058054,49.377339 C49.8269958,49.3027436 49.6767079,49.2073053 49.543972,49.0822483 C49.418915,48.9593853 49.3728413,48.9133116 49.3739383,48.7026893 L49.3794233,47.4740589 C49.3838112,46.438499 49.3903932,45.0771326 49.3827142,43.5654784 C49.3903932,42.0428543 49.3838112,40.681488 49.3794233,39.6459281 L49.3739383,38.4085218 C49.3728413,38.2066754 49.418915,38.1616987 49.542875,38.0421266 C49.674514,37.9170696 49.8248018,37.8194374 50.0036114,37.744842 C50.3831704,37.5890692 50.8439068,37.606621 51.2947703,37.7942066 C51.4516401,37.8589291 51.5756001,37.9631433 51.6951722,38.129886 L52.3862767,39.1226632 L56.2279407,36.2847464 L55.5686489,35.30623 C55.2592973,34.8542696 54.8983871,34.4582557 54.4968882,34.1302552 C54.0986804,33.8099337 53.6774356,33.5466558 53.245221,33.3513913 C52.8195884,33.1561269 52.3665309,33.00913 51.8992126,32.9125948 C50.5718529,32.6405409 49.2554632,32.7634039 48.0893614,33.266923 C47.4454274,33.5466558 46.6994732,33.9196329 46.0456663,34.5668578 C45.5191105,35.0978017 44.7226947,35.9007994 44.7226947,37.5802933 L44.7226947,49.5407907 C44.7226947,51.2279635 45.5454383,52.0518041 46.090643,52.5981058 C46.7027642,53.204742 47.4454274,53.5722342 48.0915553,53.854161 C49.1808678,54.3225763 50.4018193,54.4607972 51.6436136,54.2567568 L51.6436136,55.4272467 L56.1544423,55.4272467 L56.1544423,45.8033409 L51.6436136,45.8033409 L51.6436136,49.0581145 Z" id="Fill-4" fill="#FFFF00"></path>
                </g>
                <g id="Group-11" transform="translate(29.000000, 34.000000)">
                    <mask id="mask-4" fill="white">
                        <use xlink:href="#path-3"></use>
                    </mask>
                    <g id="Clip-10"></g>
                    <polygon id="Fill-9" fill="#FFFF00" mask="url(#mask-4)" points="-5.31397849 13.903341 14.1978495 13.903341 14.1978495 -4.92096774 -5.31397849 -4.92096774"></polygon>
                </g>
                <g id="Group-16" transform="translate(28.000000, 34.000000)" fill="#FFFF00">
                    <path d="M40.7248945,0.273548387 C38.2190492,0.273548387 36.1829105,2.23591398 36.1829105,4.65741935 C36.1829105,7.07892473 38.2190492,9.04129032 40.7248945,9.04129032 C43.2352025,9.04129032 45.275804,7.07892473 45.275804,4.65741935 C45.275804,2.23591398 43.2352025,0.273548387 40.7248945,0.273548387" id="Fill-12"></path>
                    <path d="M41.197725,21.3478495 L41.1341305,21.3478495 L41.1341305,21.8758065 C41.1341305,26.4155914 32.7073054,30.3973118 23.0799951,30.3973118 C13.4582634,30.3973118 5.02474412,26.4155914 5.02474412,21.8758065 L5.02474412,21.3478495 L4.96114965,21.3478495 L4.96114965,17.5607527 L0.267431482,17.5607527 L0.267431482,21.3478495 L0.267431482,21.8758065 L0.267431482,34.966129 L4.96114965,34.966129 L4.96114965,29.838172 C9.09813728,32.9543011 15.5769634,34.966129 23.0799951,34.966129 C30.586374,34.966129 37.0652001,32.9521505 41.197725,29.8327957 L41.197725,34.966129 L45.8858647,34.966129 L45.8858647,21.8758065 L45.8858647,21.3478495 L45.8858647,17.5607527 L41.197725,17.5607527 L41.197725,21.3478495 Z" id="Fill-14"></path>
                </g>
            </g>
        </g>
    </g>
</svg>