<?xml version="1.0" encoding="UTF-8"?>
<svg width="123px" height="30px" viewBox="0 0 123 30" version="1.1" xmlns="http://www.w3.org/2000/svg" xmlns:xlink="http://www.w3.org/1999/xlink">
    <!-- Generator: Sketch 51.2 (57519) - http://www.bohemiancoding.com/sketch -->
    <title>Group 21</title>
    <desc>Created with Sketch.</desc>
    <defs></defs>
    <g id="Page-1" stroke="none" stroke-width="1" fill="none" fill-rule="evenodd">
        <g id="Enter-Info" transform="translate(-92.000000, -984.000000)">
            <g id="Group-21" transform="translate(92.000000, 984.000000)">
                <path d="M45.8271111,6.69288889 L39.0448889,6.69288889 C38.5807222,6.69288889 38.186,7.03011111 38.1137778,7.48816667 L35.3707222,24.8795556 C35.3162778,25.2226111 35.5818333,25.5320556 35.9301667,25.5320556 L39.1679444,25.5320556 C39.6321111,25.5320556 40.0268333,25.1948333 40.0990556,24.7356667 L40.8387778,20.0451111 C40.9101667,19.5859444 41.306,19.2487222 41.7690556,19.2487222 L43.9162778,19.2487222 C48.3837778,19.2487222 50.9621111,17.0867778 51.6354444,12.8028889 C51.9387778,10.9284444 51.6485,9.45566667 50.7707222,8.42427778 C49.8068333,7.29177778 48.0971111,6.69288889 45.8271111,6.69288889 M46.6096111,13.0448333 C46.2385,15.4781667 44.3793333,15.4781667 42.5812778,15.4781667 L41.5579444,15.4781667 L42.2757222,10.9334444 C42.3185,10.6587222 42.5565556,10.4562222 42.8343333,10.4562222 L43.3032222,10.4562222 C44.5279444,10.4562222 45.6832222,10.4562222 46.2801667,11.1545556 C46.6362778,11.5709444 46.7454444,12.1898333 46.6096111,13.0448333" id="Fill-1" fill="#253B80"></path>
                <path d="M66.1002778,12.9663333 L62.8525,12.9663333 C62.5758333,12.9663333 62.3369444,13.1688333 62.2941667,13.4432778 L62.1502778,14.3518889 L61.9233333,14.0224444 C61.2202778,13.0018889 59.6522222,12.6607778 58.0875,12.6607778 C54.4983333,12.6607778 51.4330556,15.3791111 50.8361111,19.1924444 C50.5258333,21.0941111 50.9672222,22.913 52.0461111,24.1816111 C53.0358333,25.3477222 54.4516667,25.8335556 56.1366667,25.8335556 C59.0286111,25.8335556 60.6319444,23.9741111 60.6319444,23.9741111 L60.4872222,24.8766111 C60.4327778,25.2218889 60.6986111,25.5310556 61.0447222,25.5310556 L63.97,25.5310556 C64.4352778,25.5310556 64.8280556,25.1938333 64.9013889,24.7349444 L66.6566667,13.6188333 C66.7122222,13.2768889 66.4472222,12.9663333 66.1002778,12.9663333 M61.5733333,19.2874444 C61.2597222,21.1427222 59.7872222,22.3882778 57.9088889,22.3882778 C56.9658333,22.3882778 56.2119444,22.0860556 55.7280556,21.5127222 C55.2483333,20.9435556 55.0655556,20.1332778 55.2183333,19.2307778 C55.5108333,17.3913333 57.0086111,16.1049444 58.8580556,16.1049444 C59.7802778,16.1049444 60.53,16.4116111 61.0238889,16.9896667 C61.5186111,17.5735556 61.715,18.3888333 61.5733333,19.2874444" id="Fill-3" fill="#253B80"></path>
                <path d="M83.3973611,12.9663333 L80.13375,12.9663333 C79.8223611,12.9663333 79.5295833,13.1210556 79.3531944,13.3799444 L74.8518056,20.0105 L72.94375,13.6385556 C72.8240278,13.2399444 72.4559722,12.9663333 72.0393056,12.9663333 L68.8323611,12.9663333 C68.4426389,12.9663333 68.1718056,13.3471667 68.2959722,13.7141111 L71.8906944,24.2635556 L68.5109722,29.0346667 C68.2451389,29.4107778 68.5129167,29.9271667 68.9720833,29.9271667 L72.2320833,29.9271667 C72.54125,29.9271667 72.8309722,29.7763333 73.0065278,29.5227222 L83.8615278,13.8538333 C84.12125,13.4791111 83.8545833,12.9663333 83.3973611,12.9663333" id="Fill-5" fill="#253B80"></path>
                <path d="M94.20275,6.69288889 L87.4196944,6.69288889 C86.9566389,6.69288889 86.5619167,7.03011111 86.4894167,7.48816667 L83.7463611,24.8795556 C83.6919167,25.2226111 83.9574722,25.5320556 84.3035833,25.5320556 L87.7846944,25.5320556 C88.1080278,25.5320556 88.3846944,25.2962222 88.4349722,24.9745556 L89.2135833,20.0451111 C89.2849722,19.5859444 89.6808056,19.2487222 90.1438611,19.2487222 L92.2896944,19.2487222 C96.7583056,19.2487222 99.3358056,17.0867778 100.009972,12.8028889 C100.314694,10.9284444 100.021917,9.45566667 99.1444167,8.42427778 C98.1813611,7.29177778 96.47275,6.69288889 94.20275,6.69288889 M94.98525,13.0448333 C94.61525,15.4781667 92.7560833,15.4781667 90.9569167,15.4781667 L89.9346944,15.4781667 L90.6535833,10.9334444 C90.6963611,10.6587222 90.9324722,10.4562222 91.2108056,10.4562222 L91.6799722,10.4562222 C92.9035833,10.4562222 94.0599722,10.4562222 94.6571944,11.1545556 C95.0130278,11.5709444 95.1213611,12.1898333 94.98525,13.0448333" id="Fill-7" fill="#179BD7"></path>
                <path d="M114.475111,12.9663333 L111.229,12.9663333 C110.950667,12.9663333 110.713444,13.1688333 110.672056,13.4432778 L110.528167,14.3518889 L110.300111,14.0224444 C109.596778,13.0018889 108.030111,12.6607778 106.465111,12.6607778 C102.876222,12.6607778 99.8117778,15.3791111 99.2148333,19.1924444 C98.9053889,21.0941111 99.3448333,22.913 100.423722,24.1816111 C101.415389,25.3477222 102.829556,25.8335556 104.514556,25.8335556 C107.406222,25.8335556 109.009833,23.9741111 109.009833,23.9741111 L108.865111,24.8766111 C108.810389,25.2218889 109.076222,25.5310556 109.424278,25.5310556 L112.349,25.5310556 C112.812056,25.5310556 113.206778,25.1938333 113.279,24.7349444 L115.035389,13.6188333 C115.089,13.2768889 114.823167,12.9663333 114.475111,12.9663333 M109.947889,19.2874444 C109.6365,21.1427222 108.161778,22.3882778 106.283722,22.3882778 C105.342611,22.3882778 104.586778,22.0860556 104.102889,21.5127222 C103.623167,20.9435556 103.442333,20.1332778 103.593167,19.2307778 C103.887889,17.3913333 105.383444,16.1049444 107.232889,16.1049444 C108.154833,16.1049444 108.904556,16.4116111 109.398722,16.9896667 C109.895389,17.5735556 110.091778,18.3888333 109.947889,19.2874444" id="Fill-9" fill="#179BD7"></path>
                <path d="M118.304056,7.16988889 L115.520444,24.8793333 C115.465722,25.2226667 115.731556,25.5321111 116.077389,25.5321111 L118.876278,25.5321111 C119.341278,25.5321111 119.736,25.1948889 119.807389,24.7357222 L122.552389,7.34544444 C122.606833,7.00211111 122.341,6.69183333 121.994889,6.69183333 L118.861278,6.69183333 C118.584611,6.69294444 118.346556,6.89516667 118.304056,7.16988889" id="Fill-11" fill="#179BD7"></path>
                <path d="M7.20569444,28.9118333 L7.72430556,25.6173889 L6.56902778,25.5904444 L1.05236111,25.5904444 L4.88597222,1.28127778 C4.89791667,1.20794444 4.93680556,1.13961111 4.99319444,1.09072222 C5.04958333,1.04211111 5.12208333,1.01544444 5.19763889,1.01544444 L14.4995833,1.01544444 C17.5876389,1.01544444 19.71875,1.65822222 20.8315278,2.92655556 C21.3531944,3.52155556 21.6854167,4.14322222 21.8459722,4.82738889 C22.0145833,5.54544444 22.0176389,6.40322222 21.8529167,7.44961111 L21.8409722,7.526 L21.8409722,8.19627778 L22.3626389,8.49183333 C22.8018056,8.72488889 23.1509722,8.99183333 23.41875,9.29711111 C23.8651389,9.80572222 24.15375,10.4523889 24.2756944,11.2190556 C24.4015278,12.0073889 24.3598611,12.9454444 24.15375,14.0076667 C23.9156944,15.2293333 23.5309722,16.2935 23.01125,17.1640556 C22.5331944,17.9665556 21.9243056,18.6318333 21.2015278,19.1476667 C20.51125,19.6373889 19.6909722,20.0093333 18.76375,20.2473889 C17.8654167,20.4812778 16.8409722,20.5993333 15.7173611,20.5993333 L14.9934722,20.5993333 C14.4756944,20.5993333 13.9729167,20.7857222 13.5781944,21.1198889 C13.1826389,21.4612778 12.9206944,21.9271111 12.8404167,22.4368333 L12.7859722,22.7335 L11.8695833,28.5398889 L11.8279167,28.7532222 C11.8170833,28.8204444 11.7981944,28.8543333 11.7704167,28.8771111 C11.7456944,28.8979444 11.7098611,28.9118333 11.6751389,28.9118333 L7.20569444,28.9118333 Z" id="Fill-13" fill="#253B80"></path>
                <path d="M22.8565833,7.60325 C22.8288056,7.78075 22.7971389,7.96213889 22.7613056,8.14852778 C21.5346389,14.4468611 17.3376944,16.6226944 11.9776944,16.6226944 L9.24852778,16.6226944 C8.59297222,16.6226944 8.04075,17.0988056 7.93852778,17.7454722 L6.54130556,26.6071389 L6.14547222,29.1190833 C6.07908333,29.5435278 6.40630556,29.9263056 6.83463889,29.9263056 L11.6751944,29.9263056 C12.2485278,29.9263056 12.7351944,29.5096389 12.8254722,28.9443611 L12.87325,28.6985278 L13.7843611,22.9149167 L13.8429722,22.5974167 C13.9324167,22.0304722 14.4201944,21.6138056 14.99325,21.6138056 L15.7174167,21.6138056 C20.4071389,21.6138056 24.07825,19.7099167 25.1513056,14.1999167 C25.5996389,11.89825 25.3674167,9.97630556 24.1815833,8.62463889 C23.8224167,8.21713889 23.3771389,7.87908333 22.8565833,7.60325" id="Fill-15" fill="#179BD7"></path>
                <path d="M21.5732222,7.0915 C21.386,7.03705556 21.1923889,6.98733333 20.9940556,6.94288889 C20.7948889,6.89927778 20.5904444,6.86038889 20.3804444,6.82677778 C19.6443333,6.70788889 18.8382222,6.65122222 17.9743333,6.65122222 L10.6835,6.65122222 C10.5040556,6.65122222 10.3335,6.69205556 10.1807222,6.76538889 C9.84461111,6.92705556 9.59461111,7.24538889 9.53405556,7.63511111 L7.98322222,17.4587222 L7.9385,17.7453889 C8.04072222,17.0987222 8.59294444,16.6228889 9.2485,16.6228889 L11.9776667,16.6228889 C17.3376667,16.6228889 21.5346111,14.4459444 22.7612778,8.14872222 C22.7979444,7.96233333 22.8287778,7.78066667 22.8565556,7.60316667 C22.546,7.43872222 22.2098889,7.29788889 21.8479444,7.17788889 C21.7587778,7.14816667 21.6665556,7.11955556 21.5732222,7.0915" id="Fill-17" fill="#222D65"></path>
                <path d="M9.53411111,7.635 C9.59466667,7.24527778 9.84466667,6.92694444 10.1807778,6.76638889 C10.3343889,6.69277778 10.5041111,6.65222222 10.6835556,6.65222222 L17.9743889,6.65222222 C18.8382778,6.65222222 19.6443889,6.70888889 20.3802222,6.82777778 C20.5905,6.86138889 20.7949444,6.9 20.9941111,6.94388889 C21.1924444,6.98833333 21.3860556,7.03805556 21.5732778,7.0925 C21.6666111,7.12027778 21.7588333,7.14916667 21.8488333,7.17777778 C22.2110556,7.29777778 22.5471667,7.43944444 22.8574444,7.60333333 C23.2224444,5.27583333 22.8546667,3.69111111 21.5960556,2.25611111 C20.2088333,0.676388889 17.7046667,0 14.5005,0 L5.19855556,0 C4.54383333,0 3.9855,0.476111111 3.88438889,1.12361111 L0.00994444444,25.6827778 C-0.0664444444,26.1688889 0.308555556,26.6072222 0.798277778,26.6072222 L6.54133333,26.6072222 L7.98327778,17.4588889 L9.53411111,7.635 Z" id="Fill-19" fill="#253B80"></path>
            </g>
        </g>
    </g>
</svg>