<?xml version="1.0" encoding="UTF-8"?>
<svg width="40px" height="45px" viewBox="0 0 40 45" version="1.1" xmlns="http://www.w3.org/2000/svg" xmlns:xlink="http://www.w3.org/1999/xlink">
    <!-- Generator: Sketch 51.2 (57519) - http://www.bohemiancoding.com/sketch -->
    <title>Group 3</title>
    <desc>Created with Sketch.</desc>
    <defs>
        <polygon id="path-1" points="0 0 40 0 40 45 0 45"></polygon>
    </defs>
    <g id="Page-1" stroke="none" stroke-width="1" fill="none" fill-rule="evenodd">
        <g id="Account" transform="translate(-13.000000, -856.000000)">
            <g id="Group-3" transform="translate(13.000000, 856.000000)">
                <mask id="mask-2" fill="white">
                    <use xlink:href="#path-1"></use>
                </mask>
                <g id="Clip-2"></g>
                <path d="M19.8529412,7.69736842 C15.5358824,7.69736842 12.4794118,10.6555263 12.0664706,15.2342763 L15.5811765,15.5557895 C15.6982353,14.2608553 16.3482353,11.25 19.8529412,11.25 C21.2605882,11.25 22.2929412,11.5922368 22.9252941,12.2672368 C23.7088235,13.1044737 23.8076471,14.3727632 23.7535294,15.28875 C23.6570588,16.9004605 22.7629412,17.6222368 21.1923529,18.7602632 C19.6135294,19.9048026 17.6470588,21.3294079 17.6470588,24.2763158 L17.6470588,26.0526316 L21.1764706,26.0526316 L21.1764706,24.2763158 C21.1764706,23.2466447 21.7464706,22.73625 23.2547059,21.6438158 C24.8664706,20.475 27.0747059,18.8757237 27.2758824,15.5013158 C27.4135294,13.1855921 26.7976471,11.2245395 25.4941176,9.83190789 C24.5829412,8.85789474 22.8652941,7.69736842 19.8529412,7.69736842 Z M17.6470588,31.9736842 L21.1764706,31.9736842 L21.1764706,28.4210526 L17.6470588,28.4210526 L17.6470588,31.9736842 Z M37.6470588,35.5263158 C37.6470588,36.8325 36.5911765,37.8947368 35.2941176,37.8947368 L23.5294118,37.8947368 C23.1594118,37.8947368 22.81,38.0705921 22.5882353,38.3690132 L20,41.8423026 L17.4117647,38.3690132 C17.19,38.0705921 16.8411765,37.8947368 16.4705882,37.8947368 L4.70588235,37.8947368 C3.40823529,37.8947368 2.35294118,36.8325 2.35294118,35.5263158 L2.35294118,4.73684211 C2.35294118,3.43065789 3.40823529,2.36842105 4.70588235,2.36842105 L35.2941176,2.36842105 C36.5911765,2.36842105 37.6470588,3.43065789 37.6470588,4.73684211 L37.6470588,35.5263158 Z M35.2941176,0 L4.70588235,0 C2.11117647,0 0,2.12506579 0,4.73684211 L0,35.5263158 C0,38.1392763 2.11117647,40.2631579 4.70588235,40.2631579 L15.8823529,40.2631579 L19.0588235,44.5257237 C19.2805882,44.8241447 19.6294118,45 20,45 C20.37,45 20.7194118,44.8241447 20.9411765,44.5257237 L24.1176471,40.2631579 L35.2941176,40.2631579 C37.8894118,40.2631579 40,38.1392763 40,35.5263158 L40,4.73684211 C40,2.12506579 37.8894118,0 35.2941176,0 Z" id="Fill-1" fill="#10446B" mask="url(#mask-2)"></path>
            </g>
        </g>
    </g>
</svg>