<?xml version="1.0" encoding="UTF-8"?>
<svg width="39px" height="40px" viewBox="0 0 39 40" version="1.1" xmlns="http://www.w3.org/2000/svg" xmlns:xlink="http://www.w3.org/1999/xlink">
    <!-- Generator: Sketch 51.2 (57519) - http://www.bohemiancoding.com/sketch -->
    <title>Group 6</title>
    <desc>Created with Sketch.</desc>
    <defs>
        <polygon id="path-1" points="3.31878193e-05 0 38.6305286 0 38.6305286 40 3.31878193e-05 40"></polygon>
    </defs>
    <g id="Page-1" stroke="none" stroke-width="1" fill="none" fill-rule="evenodd">
        <g id="Account" transform="translate(-16.000000, -685.000000)">
            <g id="Group-6" transform="translate(16.000000, 685.000000)">
                <path d="M19.4748192,9.35368128 C20.6599119,9.33984758 21.6320484,10.2893421 21.6463014,11.4748478 C21.6601351,12.6599344 20.7102165,13.632485 19.5251238,13.6463187 C18.339612,13.6597332 17.3678947,12.7102387 17.3536417,11.5251522 C17.3536417,11.5167681 17.3536417,11.5083841 17.3536417,11.5 C17.3490305,10.3228783 18.2972723,9.36290374 19.4748192,9.35368128 M19.4748192,16.9999417 C22.512379,17.0137754 24.9856888,14.5626962 24.9999417,11.5251522 C25.0137755,8.48802734 22.5626836,6.01431117 19.5251238,6.00005827 C16.4875641,5.98622458 14.0138351,8.43730379 14.0000013,11.475267 L14.0000013,11.5 C13.9979053,14.5287408 16.4460628,16.9886233 19.4748192,16.9999417" id="Fill-1" fill="#10446B"></path>
                <g id="Group-5">
                    <mask id="mask-2" fill="white">
                        <use xlink:href="#path-1"></use>
                    </mask>
                    <g id="Clip-4"></g>
                    <path d="M3.4581,35.4824783 L5.08667143,26.2481304 C5.16038571,25.8276957 5.52338571,25.5237826 5.94381429,25.5303043 L13.3152429,25.5303043 L17.8366714,31.6520435 C18.4032429,32.4216087 19.4772429,32.5798696 20.2358143,32.005087 C20.3678143,31.9046522 20.4848143,31.7859565 20.5838143,31.6520435 L25.0923857,25.5303043 L32.7038143,25.5303043 C33.1229571,25.5233478 33.4855286,25.825087 33.5609571,26.2433478 L35.1723857,35.4872609 C35.2551,35.9598696 34.9448143,36.4111739 34.4785286,36.495087 C34.4245286,36.505087 34.3701,36.5094348 34.3152429,36.5085652 L4.28524286,36.5085652 C3.8121,36.5163913 3.4221,36.1337826 3.41395714,35.6537826 C3.41352857,35.5963913 3.41781429,35.539 3.4281,35.4824783 L3.4581,35.4824783 Z M10.3923857,12.1259565 C10.6709571,7.88247826 14.0481,3.47813043 19.2081,3.47813043 C24.3681,3.47813043 27.7452429,7.86943478 28.0238143,12.112913 C28.1348143,14.3459565 27.4572429,16.5459565 26.1123857,18.3172609 L19.2081,27.7085652 L12.3038143,18.3303043 C10.9589571,16.559 10.2809571,14.359 10.3923857,12.1259565 Z M0.9981,38.4263913 C1.80938571,39.4194348 3.01367143,39.9959565 4.28524286,40.0003043 L34.3452429,40.0003043 C36.7122429,39.9998696 38.6309571,38.0533478 38.6305286,35.6520435 C38.6305286,35.3924783 38.6082429,35.1333478 38.5623857,34.8781304 L36.9209571,25.6259565 C36.5519571,23.5568261 34.7763857,22.0520435 32.7038143,22.0520435 L27.6552429,22.0520435 L28.8595286,20.4346522 C30.6886714,17.9968261 31.6006714,14.9763913 31.4309571,11.9172609 C31.0066714,5.21726087 25.6323857,-0.000130434783 19.2081,-0.000130434783 C12.7838143,-0.000130434783 7.40952857,5.21726087 6.97238571,11.8955217 C6.80267143,14.9546522 7.71467143,17.975087 9.54381429,20.412913 L10.7438143,22.0520435 L5.92667143,22.0520435 C3.8541,22.0520435 2.07852857,23.5568261 1.70952857,25.6259565 L0.0681,34.865087 C-0.157328571,36.1333478 0.183385714,37.4376957 0.9981,38.4263913 Z" id="Fill-3" fill="#10446B" mask="url(#mask-2)"></path>
                </g>
            </g>
        </g>
    </g>
</svg>