<?xml version="1.0" encoding="UTF-8"?>
<svg width="37px" height="33px" viewBox="0 0 37 33" version="1.1" xmlns="http://www.w3.org/2000/svg" xmlns:xlink="http://www.w3.org/1999/xlink">
    <!-- Generator: Sketch 51.2 (57519) - http://www.bohemiancoding.com/sketch -->
    <title>Group 9</title>
    <desc>Created with Sketch.</desc>
    <defs>
        <polygon id="path-1" points="0 0.0003 33 0.0003 33 33 0 33"></polygon>
        <polygon id="path-3" points="0.38595 0.374363636 11.61375 0.374363636 11.61375 7.27290909 0.38595 7.27290909"></polygon>
    </defs>
    <g id="Page-1" stroke="none" stroke-width="1" fill="none" fill-rule="evenodd">
        <g id="Account" transform="translate(-15.000000, -618.000000)">
            <g id="Group-9" transform="translate(15.000000, 618.000000)">
                <path d="M15,16.3477265 C15,16.6559409 15.1011036,16.956025 15.2900896,17.2073269 L19.1786907,22.3811902 C19.6779871,23.0449229 20.6493596,23.1993997 21.3477524,22.7241434 C22.0477006,22.2503654 22.2094664,21.3264612 21.71017,20.6619893 L18.1108809,15.9781648 L18.1108809,7.47824664 C18.1108809,6.6622545 17.4140435,6 16.5554404,6 C15.6968373,6 15,6.6622545 15,7.47824664 L15,16.3477265 Z" id="Fill-1" fill="#10446B"></path>
                <g id="Group-5">
                    <mask id="mask-2" fill="white">
                        <use xlink:href="#path-1"></use>
                    </mask>
                    <g id="Clip-4"></g>
                    <path d="M3,16.5003 C3,9.04455 9.04425,3.0003 16.5,3.0003 C20.03775,3.0003 23.3565,4.36455 25.8555,6.76755 C26.45325,7.3413 27.402,7.3233 27.9765,6.72555 C28.55025,6.12855 28.53225,5.17905 27.9345,4.60455 C24.88275,1.6698 20.82075,0.0003 16.5,0.0003 C7.3875,0.0003 0,7.3878 0,16.5003 C0,25.61205 7.3875,33.0003 16.5,33.0003 C25.6125,33.0003 33,25.61205 33,16.5003 C33,15.67155 32.328,13.5 31.5,13.5 C30.672,13.5 30,15.67155 30,16.5003 C30,23.9553 23.95575,30.0003 16.5,30.0003 C9.04425,30.0003 3,23.9553 3,16.5003 Z" id="Fill-3" fill="#10446B" mask="url(#mask-2)"></path>
                </g>
                <g id="Group-8" transform="translate(25.000000, 11.000000)">
                    <mask id="mask-4" fill="white">
                        <use xlink:href="#path-3"></use>
                    </mask>
                    <g id="Clip-7"></g>
                    <path d="M7.060575,0.800363636 C6.474825,0.232363636 5.525325,0.232363636 4.939575,0.800363636 L0.825825,4.78945455 C0.239325,5.35818182 0.239325,6.27890909 0.825825,6.84690909 C1.411575,7.41490909 2.360325,7.41490909 2.946825,6.84690909 L6.012825,3.89854545 L9.053325,6.84690909 C9.639075,7.41490909 10.588575,7.41490909 11.174325,6.84690909 C11.760825,6.27890909 11.760825,5.35818182 11.174325,4.78945455 L7.060575,0.800363636 Z" id="Fill-6" fill="#10446B" mask="url(#mask-4)"></path>
                </g>
            </g>
        </g>
    </g>
</svg>