<?xml version="1.0" encoding="UTF-8"?>
<svg width="37px" height="45px" viewBox="0 0 37 45" version="1.1" xmlns="http://www.w3.org/2000/svg" xmlns:xlink="http://www.w3.org/1999/xlink">
    <!-- Generator: Sketch 51.2 (57519) - http://www.bohemiancoding.com/sketch -->
    <title>Group 3</title>
    <desc>Created with Sketch.</desc>
    <defs>
        <polygon id="path-1" points="0 0 37 0 37 45 0 45"></polygon>
    </defs>
    <g id="Page-1" stroke="none" stroke-width="1" fill="none" fill-rule="evenodd">
        <g id="Account" transform="translate(-18.000000, -927.000000)">
            <g id="Group-3" transform="translate(18.000000, 927.000000)">
                <mask id="mask-2" fill="white">
                    <use xlink:href="#path-1"></use>
                </mask>
                <g id="Clip-2"></g>
                <path d="M25.6769573,43.3638347 C20.327501,43.3638347 15.9753552,38.9756393 15.9753552,33.5812023 C15.9753552,28.1867652 20.327501,23.7980245 25.6769573,23.7980245 C31.0269543,23.7980245 35.3780185,28.1867652 35.3780185,33.5812023 C35.3780185,38.9756393 31.0264135,43.3638347 25.6769573,43.3638347 Z M15.0537625,37.4992728 L1.62252236,37.4992728 L1.62252236,1.63616531 L19.3361399,1.63616531 L19.3361399,8.56750697 C19.3361399,9.0190886 19.6995849,9.38558963 20.147401,9.38558963 L26.9533415,9.38558963 L26.9533415,22.2398497 C26.5331082,22.1918555 26.1085482,22.1618592 25.6764164,22.1618592 C19.4324095,22.1618592 14.3528328,27.2846928 14.3528328,33.5812023 C14.3528328,34.9593989 14.6086505,36.2754212 15.0537625,37.4992728 Z M20.9592031,2.80602351 L25.8186575,7.74942431 L20.9592031,7.74942431 L20.9592031,2.80602351 Z M28.5764047,22.556175 L28.5764047,8.56750697 C28.5764047,8.35153315 28.4920336,8.14483093 28.341139,7.99103139 L20.7239373,0.242152466 C20.5719611,0.08726215 20.364819,0 20.1479419,0 L0.811261182,0 C0.362904169,0 0,0.36650103 0,0.818082657 L0,38.3173555 C0,38.7689371 0.362904169,39.1354381 0.811261182,39.1354381 L15.7914693,39.1354381 C17.7298427,42.6286511 21.4313571,45 25.6764164,45 C31.9209642,45 37,39.8771664 37,33.5812023 C37,28.2969337 33.4180115,23.8525633 28.5764047,22.556175 Z M30.2243466,29.4100715 L24.6050108,36.0883529 L21.0143688,33.2076112 C20.6644448,32.9256454 20.1528094,32.9845473 19.8742764,33.3385044 C19.5957434,33.6913707 19.6536134,34.2067628 20.0046191,34.4876379 L24.2091154,37.8625015 C24.3583874,37.982487 24.5368649,38.0397528 24.7148015,38.0397528 C24.9446588,38.0397528 25.1728936,37.9415828 25.3335234,37.7517877 L31.4612495,30.4681251 C31.7505993,30.123985 31.7094954,29.6080475 31.3671432,29.3157193 C31.0253318,29.0228457 30.5136964,29.065386 30.2243466,29.4100715 Z M12.0823832,28.3329293 L5.16124364,28.3329293 C4.71288663,28.3329293 4.34998246,28.6994304 4.34998246,29.151012 C4.34998246,29.6025936 4.71288663,29.9690947 5.16124364,29.9690947 L12.0823832,29.9690947 C12.5307402,29.9690947 12.8936444,29.6025936 12.8936444,29.151012 C12.8936444,28.6994304 12.5307402,28.3329293 12.0823832,28.3329293 Z M14.7611676,24.2065204 L5.16124364,24.2065204 C4.71288663,24.2065204 4.34998246,24.5730215 4.34998246,25.0246031 C4.34998246,25.4761847 4.71288663,25.8426857 5.16124364,25.8426857 L14.7611676,25.8426857 C15.2095246,25.8426857 15.5724288,25.4761847 15.5724288,25.0246031 C15.5724288,24.5730215 15.2095246,24.2065204 14.7611676,24.2065204 Z M5.16124364,21.715186 L20.1695755,21.715186 C20.6179325,21.715186 20.9808367,21.3492304 20.9808367,20.8971034 C20.9808367,20.4455218 20.6179325,20.0790207 20.1695755,20.0790207 L5.16124364,20.0790207 C4.71288663,20.0790207 4.34998246,20.4455218 4.34998246,20.8971034 C4.34998246,21.3492304 4.71342747,21.715186 5.16124364,21.715186 Z M5.16124364,12.9835171 L23.4146202,12.9835171 C23.8629773,12.9835171 24.2258814,12.6175615 24.2258814,12.1654345 C24.2258814,11.7138529 23.8629773,11.3473518 23.4146202,11.3473518 L5.16124364,11.3473518 C4.71288663,11.3473518 4.34998246,11.7138529 4.34998246,12.1654345 C4.34998246,12.6175615 4.71342747,12.9835171 5.16124364,12.9835171 Z M5.16124364,17.5876863 L23.4146202,17.5876863 C23.8629773,17.5876863 24.2258814,17.2217307 24.2258814,16.7696037 C24.2258814,16.3180221 23.8629773,15.951521 23.4146202,15.951521 L5.16124364,15.951521 C4.71288663,15.951521 4.34998246,16.3180221 4.34998246,16.7696037 C4.34998246,17.2217307 4.71342747,17.5876863 5.16124364,17.5876863 Z" id="Fill-1" fill="#10446B" mask="url(#mask-2)"></path>
            </g>
        </g>
    </g>
</svg>