
<svg width="40px" height="40px" viewBox="0 0 40 40" version="1.1" xmlns="http://www.w3.org/2000/svg" xmlns:xlink="http://www.w3.org/1999/xlink">
    <!-- Generator: Sketch 51.2 (57519) - http://www.bohemiancoding.com/sketch -->
    <desc>Created with Sketch.</desc>
    <defs>
        <polygon id="path-1" points="9.84702068e-06 0.0329510972 39.9700308 0.0329510972 39.9700308 40 9.84702068e-06 40"></polygon>
        <polygon id="path-3" points="0.000105190361 0.0223536106 18.5905952 0.0223536106 18.5905952 7.99993041 0.000105190361 7.99993041"></polygon>
    </defs>
    <g id="Page-1" stroke="none" stroke-width="1" fill="none" fill-rule="evenodd">
        <g id="experiencepage-copy" transform="translate(-162.000000, -1381.000000)">
            <g id="Group-14" transform="translate(55.000000, 1376.000000)">
                <circle id="Oval-2-Copy-2" fill="#FFFF00" cx="128" cy="25" r="19"></circle>
                <g id="Group-18" transform="translate(107.000000, 5.000000)">
                    <g id="Group-12">
                        <g id="Group-3">
                            <mask id="mask-2" fill="white">
                                <use xlink:href="#path-1"></use>
                            </mask>
                            <g id="Clip-2"></g>
                            <path d="M16.7800923,37.042864 C11.8887077,36.3592387 7.14243077,33.4040725 4.66378462,29.1905982 C2.44784615,25.4231662 2.46636923,20.7055831 3.45972308,16.5907795 C4.98667692,10.2647976 9.60698462,4.55555287 15.6455077,3.18908761 C15.6545538,3.18951057 15.6620615,3.19210876 15.6711692,3.19210876 C17.8446462,3.25525076 20.1392923,3.25893656 22.3827385,3.49712387 C22.5951077,3.56250151 22.8078462,3.62745619 23.0214462,3.70413293 C23.3752923,3.83077946 23.6845231,3.81446526 23.9437846,3.71023565 C26.3637846,4.11029607 28.6750462,4.87162538 30.6470462,6.39525076 C35.0095077,9.7656435 37.3092,15.8432266 37.1831692,21.1662477 C36.9469231,31.1998429 26.4597231,38.3953716 16.7800923,37.042864 M32.6720923,4.40739577 C29.9693231,2.11114199 26.5991077,1.18419335 23.1156615,0.774706949 C13.8376308,-2.13097281 5.56150769,3.87839275 1.94784615,12.2109607 C-1.94723077,21.1919879 -0.0940615385,31.2176073 8.35184615,36.8183323 C16.9745538,42.5357946 28.8246462,40.1856435 35.4390462,32.6591782 C42.6674154,24.4330151 40.8830462,11.3846163 32.6720923,4.40739577" id="Fill-1" fill="#10446B" mask="url(#mask-2)"></path>
                        </g>
                    </g>
                </g>
                <g id="Group-10" transform="translate(118.000000, 18.000000)">
                    <path d="M10.0428754,6.40982155 C9.9999334,6.50364747 9.93383172,6.58363731 9.83202548,6.62384841 C9.70802452,6.67270707 9.56038135,6.64762918 9.4431353,6.5875287 C9.02867293,6.37652848 9.05328013,6.17763482 9.0552101,5.78849507 C9.05762257,5.3803307 9.06051754,4.84375021 9.05714008,4.247934 C9.06051754,3.6482264 9.05762257,3.11121353 9.0552101,2.70304917 C9.05424512,2.42546281 8.98766094,1.93514671 9.43879285,1.9027184 C9.61683315,1.88974707 9.78763603,1.9718988 9.9275593,2.07134563 C10.2218807,2.28018396 10.5750663,2.25164705 10.8959248,2.11069198 C11.1863862,1.98270824 11.528957,1.77732892 11.7480093,1.56373443 C11.8097685,1.50363396 11.8667028,1.43661544 11.88938,1.35749036 C11.9496918,1.14562538 11.7716515,0.931166136 11.6138759,0.796264354 C10.7820562,0.0863004848 9.56954873,-0.232361739 8.48779713,0.188773954 C8.20457314,0.299462597 7.8769597,0.446038572 7.58939326,0.700708924 C7.35779612,0.910412016 7.00750546,1.22691235 7.00750546,1.88844994 L7.00750546,4.96913969 C7.00750546,5.51134108 6.99061817,6.05613674 7.00750546,6.59790576 C7.02632273,7.21144945 7.35924361,7.47822637 7.82919279,7.8794727 C8.39950072,8.36719453 9.29645712,8.57300622 10.0510778,8.4618852 C9.95940391,8.47528891 10.1282768,8.82854133 10.1856936,8.8618344 C10.2874998,8.92063774 10.4129483,8.93187955 10.5330893,8.94095948 C11.206651,8.99154765 12.011451,9.19692697 11.9969762,8.35897936 C11.9858788,7.7238168 11.9747814,7.08778948 11.9636841,6.45219454 C11.9574117,6.07343185 12.1619891,5.3418491 11.6630903,5.16673621 C11.4908399,5.10620336 11.2992898,5.11268902 11.1144946,5.12047182 C10.8650452,5.1304165 10.2185032,5.0266459 10.1311718,5.34011959 C10.1017396,5.44475495 10.1162145,5.55414646 10.1244169,5.66180846 C10.1364792,5.83000331 10.1316543,5.99906291 10.1089771,6.16682539 C10.0973972,6.24767998 10.0780974,6.33329073 10.0428754,6.40982155" id="Fill-1" fill="#10446B"></path>
                    <path d="M4,1.99975475 C4,0.895646842 3.31370187,0 2.46627616,0 C0.554203651,0 0.468745793,4 2.46627616,4 C3.31370187,4 4,3.10435316 4,1.99975475" id="Fill-3" fill="#10446B"></path>
                    <path d="M16.4887971,0 C15.0446517,0 14.4489139,2.41889444 15.6233472,3.5311021 C16.0597769,3.94424927 16.5488154,4.17888203 17.0508208,3.83201256 C17.2138336,3.71929208 17.3472077,3.54609924 17.4761361,3.37339018 C17.7980864,2.94089185 18,2.57854147 18,1.97236652 C18,0.882896469 17.3223853,0 16.4887971,0" id="Fill-5" fill="#10446B"></path>
                    <g id="Group-9" transform="translate(0.000000, 7.000000)">
                        <mask id="mask-4" fill="white">
                            <use xlink:href="#path-3"></use>
                        </mask>
                        <g id="Clip-8"></g>
                        <path d="M16.3405429,5.85190588 C16.5255667,5.72767059 16.6585667,5.61143529 16.6585667,5.53096471 C16.6576619,6.18131765 16.4830429,7.37849412 17.1543762,7.75496471 C17.400019,7.89284706 18.1767571,7.93990588 18.3966143,7.71025882 C18.7214238,7.37049412 18.540019,5.75214118 18.5413762,5.30743529 C18.5445429,4.22131765 18.5594714,3.13472941 18.5594714,2.04814118 L18.5594714,1.81755294 C18.5594714,1.40955294 18.6205429,0.950258824 18.5594714,0.548847059 C18.5079,0.210494118 18.5834476,0.256611765 18.3029714,0.137552941 C17.8768286,-0.0422117647 17.0078048,0.131905882 16.7644238,0.557788235 C16.5350667,0.961082353 16.6653524,1.61143529 16.632781,2.04814118 C16.632781,3.97614118 13.9397571,5.0792 12.471781,5.38602353 C10.0750667,5.88625882 7.57520952,5.94131765 5.23323333,5.10461176 C3.98330476,4.65755294 1.99147143,3.69849412 1.99147143,2.04814118 L1.99147143,1.81755294 L1.96568571,1.81755294 C1.96568571,1.4712 2.00730476,1.09708235 1.96568571,0.754494118 C1.88651905,0.107905882 1.39659048,0.114494118 0.778185714,0.0373176471 C0.607185714,0.0156705882 0.423971429,0.00578823529 0.273328571,0.0919058824 C-0.130195238,0.322964706 0.0629714286,1.41284706 0.0629714286,1.81755294 L0.0629714286,2.04814118 L0.0629714286,4.74508235 C0.0629714286,5.52296471 -0.388957143,8.39590588 1.13059048,7.64061176 C1.43730476,7.48861176 1.65897143,7.18884706 1.7901619,6.86225882 C1.95075714,6.4632 1.8091619,5.89943529 1.98106667,5.61331765 C3.52594762,6.72861176 5.3504,7.35449412 7.19385238,7.67167059 C9.01875714,7.98555294 11.1336381,8.23684706 12.918281,7.62696471 C13.6561143,7.37472941 14.3446381,6.99261176 15.0123524,6.58461176 C15.1666143,6.49049412 16.4812333,5.60814118 16.5997571,5.73472941" id="Fill-7" fill="#10446B" mask="url(#mask-4)"></path>
                    </g>
                </g>
            </g>
        </g>
    </g>
</svg>