<?xml version="1.0" encoding="UTF-8"?>
<svg width="34px" height="43px" viewBox="0 0 34 43" version="1.1" xmlns="http://www.w3.org/2000/svg" xmlns:xlink="http://www.w3.org/1999/xlink">
    <!-- Generator: Sketch 51.2 (57519) - http://www.bohemiancoding.com/sketch -->
    <title>Group 7</title>
    <desc>Created with Sketch.</desc>
    <defs>
        <polygon id="path-1" points="2.68848932e-05 0.101999492 33.8532516 0.101999492 33.8532516 42.7817259 2.68848932e-05 42.7817259"></polygon>
    </defs>
    <g id="Page-1" stroke="none" stroke-width="1" fill="none" fill-rule="evenodd">
        <g id="experiencepage-copy" transform="translate(-65.000000, -1376.000000)">
            <g id="Group-14" transform="translate(55.000000, 1376.000000)">
                <g id="Group-7" transform="translate(10.000000, 0.000000)">
                    <path d="M5.4906367,31.0923077 C4.39200999,35.0615385 4.39200999,37.3769231 5.4906367,38.0384615 C7.13857678,39.0307692 11.752809,41.6769231 12.741573,41.6769231 C13.4007491,41.6769231 15.5980025,39.5820513 19.3333333,35.3923077 L19.3333333,29.7692308 L16.3670412,28.4461538 L11.093633,31.0923077 L5.4906367,31.0923077 Z" id="Path-10" fill="#FFFF00"></path>
                    <g id="Group-6">
                        <g id="Group-3">
                            <mask id="mask-2" fill="white">
                                <use xlink:href="#path-1"></use>
                            </mask>
                            <g id="Clip-2"></g>
                            <path d="M14.4789329,15.1273345 C14.0426361,15.1273345 13.6065587,15.0732025 13.1908813,15.1417406 C12.7311135,15.2174817 12.1785587,15.2834005 11.8629071,15.568903 C11.1396942,16.222634 10.5044426,16.9826645 9.90187484,17.7525173 C9.70577161,18.0033142 9.59828774,18.445101 9.66672645,18.7517761 C9.78671355,19.291568 10.073191,19.7946898 10.2331006,20.1768878 C13.0366748,19.6102482 14.0343006,17.6468726 14.4789329,15.1273345 M6.54157806,31.3848269 C5.32722968,33.7878066 6.41830065,37.1311112 8.94877806,38.7603091 C11.6442103,40.4964614 14.9922232,39.9158523 17.0578877,37.3546239 C19.0533587,34.8804868 18.8614232,31.476502 16.5533716,29.2398472 C13.5841845,31.579964 10.5546748,33.818365 6.54157806,31.3848269 M24.5626748,2.7038269 C23.8657845,3.00744619 23.2300942,3.30975584 22.5759781,3.56535482 C17.9967265,5.35454772 13.4054103,7.11296396 8.84151355,8.93991827 C8.19990065,9.1968269 7.53569419,9.66611624 7.14304903,10.2203142 C5.8837329,11.9981569 4.73848129,13.8567609 3.56712645,15.6952838 C3.05252,16.502898 2.95732,17.3244817 3.34448129,18.265898 C4.1429329,20.2065731 4.83916516,22.1889386 5.61217161,24.2468269 C6.37750065,23.5354716 7.03183613,22.9273599 7.75746194,22.2531112 C7.29791355,21.1211416 6.84077806,19.9455173 6.34393935,18.7864817 C5.90150065,17.7547 6.20837806,17.0928929 7.06671355,16.3501061 C8.02661032,15.5193548 8.84151355,14.4607254 9.50352645,13.3715376 C9.99751355,12.5584665 10.4961071,12.1024919 11.4614877,12.1197355 C13.1792555,12.1507305 14.8983394,12.1075122 16.6161071,12.1354513 C18.0982877,12.1596797 18.6830877,13.0938929 18.1511523,14.4840807 C17.4768555,16.2459893 16.8839394,18.0423853 16.1216813,19.7650046 C15.8422232,20.3964716 15.2613716,20.9799183 14.6752555,21.3765223 C13.0226361,22.4938675 11.2745974,23.4710807 9.61188774,24.5742381 C9.11241677,24.9057964 8.73227484,25.442969 8.36375871,25.9351772 C7.79168129,26.6987 7.43128129,27.529233 8.09285548,28.4320147 C8.72942323,29.3003091 9.77048129,29.7202685 10.8073716,29.2068878 C12.1640813,28.5350401 13.4876684,27.7208777 14.6515652,26.7593802 C16.0499523,25.6040553 17.5108555,24.6467051 19.2319135,24.0639132 C19.953591,23.8196645 20.653991,23.4990198 21.3388168,23.1624411 C23.89452,21.9060553 25.8180426,20.083903 26.6886619,17.2871569 C27.3677845,15.1050706 28.0826619,12.9325883 28.8436039,10.777568 C29.5130748,8.88207563 30.3716297,7.08764416 32.2117974,5.87251218 C32.7764168,6.72465431 33.3127394,7.53488782 33.853449,8.35145127 C32.1437974,10.1282025 31.5776426,12.4058929 30.8202103,14.5890706 C30.4995135,15.5136797 30.2029458,16.4483294 29.9441071,17.3917102 C28.746649,21.7534817 25.8397587,24.5607051 21.7830103,26.3335274 C20.9591135,26.6936797 20.1360942,27.056233 19.2176555,27.4593853 C20.5116297,29.1051721 21.3081071,30.8576949 21.4355523,32.8845883 C21.6821071,36.8010807 19.5058877,40.4209386 15.9207523,41.9940401 C12.3737845,43.5505528 8.35366839,42.7606188 5.64792645,39.9752228 C2.90072645,37.1470452 2.20602968,33.0092228 3.97885548,29.4963193 C4.36799097,28.7251569 4.28156516,28.1943142 3.94485548,27.4288269 C2.6013071,24.3764817 1.30448129,21.2972888 0.177436129,18.1613447 C-0.118034839,17.3397609 -0.0408219355,16.111969 0.382094194,15.357832 C1.83619742,12.7653904 3.44648129,10.2493447 5.15876516,7.81689797 C5.68061032,7.07563909 6.65717806,6.53453756 7.53832645,6.17984213 C12.6710103,4.11540558 17.8370361,2.13347665 23.0478103,0.101999492 C23.5143781,0.90350203 23.9879652,1.71679137 24.5626748,2.7038269 Z" id="Fill-1" fill="#10446B" mask="url(#mask-2)"></path>
                        </g>
                        <path d="M14.6666667,15.2339244 C14.2373253,17.5352542 13.2740078,19.3285889 10.5668485,19.8461538 C10.4124381,19.4970567 10.1358127,19.0375085 10.0199519,18.544466 C9.95386681,18.2643509 10.0576543,17.8608257 10.2470136,17.6317494 C10.828859,16.9285708 11.4422643,16.2343639 12.1406059,15.6372503 C12.4454023,15.3764741 12.9789548,15.3162643 13.4229111,15.2470829 C13.8242934,15.1844806 14.2453741,15.2339244 14.6666667,15.2339244" id="Fill-4" fill="#FFFFFF"></path>
                    </g>
                </g>
            </g>
        </g>
    </g>
</svg>