<?xml version="1.0" encoding="UTF-8"?>
<svg width="35px" height="30px" viewBox="0 0 35 30" version="1.1" xmlns="http://www.w3.org/2000/svg" xmlns:xlink="http://www.w3.org/1999/xlink">
    <!-- Generator: Sketch 51.2 (57519) - http://www.bohemiancoding.com/sketch -->
    <title>Group</title>
    <desc>Created with Sketch.</desc>
    <defs>
        <polygon id="path-1" points="0 0 35 0 35 30 0 30"></polygon>
    </defs>
    <g id="Page-1" stroke="none" stroke-width="1" fill="none" fill-rule="evenodd">
        <g id="experiencepage-copy" transform="translate(-264.000000, -1382.000000)">
            <g id="Group-14" transform="translate(55.000000, 1376.000000)">
                <g id="Group" transform="translate(209.000000, 6.000000)">
                    <path d="M5.73388504,3.59021407 C11.415121,0.581039755 11.7493113,0.581039755 14.0886438,3.59021407 C16.4279762,6.59938838 17.7647376,7.93679918 17.7647376,8.60550459 C17.7647376,9.27420999 22.7775928,6.09785933 22.7775928,5.34556575 C22.7775928,4.59327217 28.4588288,5.29963697 28.4588288,5.34556575 C28.4588288,5.39149452 31.4665419,6.26503568 32.1349226,7.93679918 C32.8033033,9.60856269 34.1400647,15.2925586 33.471684,16.2956167 C32.8033033,17.2986748 28.4588288,21.6452599 28.4588288,21.6452599 C28.4588288,21.6452599 24.1143542,23.9857288 15.4254052,28.6666667 L6.40226573,19.6391437 L3.06036224,14.2895005 C1.05522015,9.16275909 1.94639441,5.59633028 5.73388504,3.59021407 Z" id="Path-9" fill="#FFFF00"></path>
                    <g id="Group-3">
                        <mask id="mask-2" fill="white">
                            <use xlink:href="#path-1"></use>
                        </mask>
                        <g id="Clip-2"></g>
                        <path d="M32.0394863,13.6713513 C31.8969643,16.9920596 28.1596628,19.3742449 25.687107,20.9511886 C22.3166989,23.09962 18.6950271,24.9129482 15.1777005,26.6598548 C12.3246218,23.8632112 9.38551702,20.9705524 6.8092755,17.8399747 C4.9476959,15.5776257 2.13403977,12.1587831 3.02991351,8.95696122 C3.83917488,6.06503313 6.83030575,2.96916407 9.99238978,2.96916407 C10.1955112,2.96916407 10.3996584,2.98253605 10.5994824,3.00833009 C14.257206,3.48438718 15.8506683,7.10994739 16.3951831,8.7765491 C16.3715882,9.11194466 16.4789377,9.44032541 16.7057273,9.71514517 C17.0063792,10.0798422 17.4730014,10.2978858 17.9538393,10.2978858 C18.4532892,10.2978858 18.9057692,10.057044 19.1960159,9.6368862 C20.0383981,8.41762471 22.3524577,5.58071902 25.644387,5.58071902 C25.9914959,5.58071902 26.343148,5.61338172 26.6895974,5.67848792 C29.92188,6.28125 32.1797368,10.3958009 32.0394863,13.6713513 M26.7278476,2.66518901 C26.3676222,2.61995811 26.0030003,2.59672155 25.6431413,2.59672155 C22.4956392,2.59672155 20.0621395,4.27501461 18.4387073,5.90814984 C16.8779261,2.7335834 14.4377583,0.694612237 11.4989466,0.131966095 C11.0419968,0.0445732658 10.5700254,0 10.0948298,0 C6.5605031,0 2.73277888,2.52635425 0.993203997,6.00752631 C-0.761392488,9.51989965 -0.18947244,13.3525429 2.69496841,17.398334 C5.59875414,21.4721113 9.22262423,25.0160512 12.7274206,28.4438085 L13.4498498,29.1506966 C13.7244887,29.6700848 14.2468741,29.9996346 14.810807,30 C15.0448509,30 15.2761103,29.9439546 15.4978438,29.8333983 L16.7646413,29.2060113 C21.1620873,27.0290092 25.7089432,24.7785707 29.7358319,21.8015881 C33.7347292,18.8457229 35.4694678,15.3787266 34.8916124,11.4966144 C34.3099466,7.58644291 31.0973754,3.21373246 26.7278476,2.66518901" id="Fill-1" fill="#10446B" mask="url(#mask-2)"></path>
                    </g>
                </g>
            </g>
        </g>
    </g>
</svg>