<?xml version="1.0" encoding="UTF-8"?>
<svg width="214px" height="215px" viewBox="0 0 214 215" version="1.1" xmlns="http://www.w3.org/2000/svg" xmlns:xlink="http://www.w3.org/1999/xlink">
    <!-- Generator: Sketch 51.2 (57519) - http://www.bohemiancoding.com/sketch -->
    <title>Group 15</title>
    <desc>Created with Sketch.</desc>
    <defs>
        <path d="M0.293,107.395 C0.293,166.323 48.064,214.094 106.994,214.094 C165.922,214.094 213.692,166.323 213.692,107.395 C213.692,48.466 165.922,0.695 106.994,0.695 C48.064,0.695 0.293,48.466 0.293,107.395 Z" id="path-1"></path>
        <path d="M0.293,107.395 C0.293,166.323 48.064,214.094 106.994,214.094 C165.922,214.094 213.692,166.323 213.692,107.395 C213.692,48.466 165.922,0.695 106.994,0.695 C48.064,0.695 0.293,48.466 0.293,107.395 Z" id="path-3"></path>
        <path d="M68.3808165,3.62954514 L68.3788051,3.62754208 L32.6053958,47.1630547 L17.2148846,30.6448185 L17.2068389,30.6528307 C15.394534,28.7068577 12.8068202,27.4809848 9.92342506,27.4809848 C4.44326461,27.4809848 0,31.8837112 0,37.315009 C0,39.8889414 1.00672428,42.2255112 2.64101695,43.9781889 L2.63196548,43.9862011 L25.7846125,68.8351648 L25.793664,68.8281541 C27.6059688,70.7731256 30.1936827,72 33.0770778,72 C36.1837424,72 38.9524856,70.5828349 40.773842,68.3694533 L40.7758534,68.3714564 L83.7753505,16.0415079 L83.7723334,16.0395048 C85.1642479,14.3469189 86,12.18762 86,9.83502573 C86,4.40372792 81.5577411,0 76.0765749,0 C72.9719217,0 70.2021728,1.41716511 68.3808165,3.62954514 Z" id="path-5"></path>
    </defs>
    <g id="Page-1" stroke="none" stroke-width="1" fill="none" fill-rule="evenodd">
        <g id="Thank-You!" transform="translate(-181.000000, -218.000000)">
            <g id="Group-15" transform="translate(181.000000, 218.000000)">
                <path d="M106.500499,213 C165.319317,213 213,165.318319 213,106.500499 C213,47.6816808 165.319317,0 106.500499,0 C47.6816808,0 0,47.6816808 0,106.500499 C0,165.318319 47.6816808,213 106.500499,213" id="Fill-1" fill="#F5EA16"></path>
                <g id="Group-5">
                    <mask id="mask-2" fill="white">
                        <use xlink:href="#path-1"></use>
                    </mask>
                    <g id="Clip-4"></g>
                    <polygon id="Fill-3" fill="#F5EA16" mask="url(#mask-2)" points="-117 681 318.879 681 318.879 -147.625 -117 -147.625"></polygon>
                </g>
                <g id="Group-8">
                    <mask id="mask-4" fill="white">
                        <use xlink:href="#path-3"></use>
                    </mask>
                    <g id="Clip-7"></g>
                    <polygon id="Fill-6" fill="#FFFF00" mask="url(#mask-4)" points="-3.49 217.878 217.477 217.878 217.477 -3.088 -3.49 -3.088"></polygon>
                </g>
                <path d="M151,80.8350257 C151,75.4037279 146.557741,71 141.076575,71 C137.970916,71 135.201167,72.4171651 133.379811,74.6295451 L133.378805,74.6275421 L97.6053958,118.163055 L82.2148846,101.644818 L82.2068389,101.652831 C80.3935283,99.7068577 77.8078259,98.4809848 74.9234251,98.4809848 C69.4422589,98.4809848 65,102.883711 65,108.315009 C65,110.888941 66.0067243,113.225511 67.6400112,114.978189 L67.6309598,114.986201 L90.7846125,139.836166 L90.793664,139.828154 C92.6059688,141.773126 95.192677,143 98.0760721,143 C101.183742,143 103.952486,141.582835 105.772836,139.369453 L105.775853,139.371456 L148.775351,87.0415079 L148.772333,87.0395048 C150.164248,85.3469189 151,83.18762 151,80.8350257" id="Fill-9" fill="#F4F5F5"></path>
                <g id="Group-14" transform="translate(65.000000, 72.000000)">
                    <mask id="mask-6" fill="white">
                        <use xlink:href="#path-5"></use>
                    </mask>
                    <g id="Clip-12"></g>
                    <polygon id="Fill-11" fill="#F4F5F5" mask="url(#mask-6)" points="0 72 86 72 86 0 0 0"></polygon>
                    <polygon id="Fill-13" fill="#00416B" mask="url(#mask-6)" points="-4 75 89 75 89 -4 -4 -4"></polygon>
                </g>
            </g>
        </g>
    </g>
</svg>